<svg width="32" height="32" viewBox="0 0 32 32" fill="none" xmlns="http://www.w3.org/2000/svg">
<g id="32x32">
<g id="Vector">
<path d="M22.9767 6.81667C23.3535 6.99259 23.9702 7.45 24.33 7.83704C24.7068 8.20648 25.1693 8.875 25.3406 9.31481C25.5462 9.80741 25.6832 10.4935 25.6832 11.162C25.6832 11.8306 25.5462 12.5167 25.3406 13.0093C25.1522 13.4491 24.7068 14.1 24.33 14.4694C23.9702 14.8565 23.4392 15.2787 23.148 15.437C22.8568 15.5778 22.0859 15.7361 21.435 15.7889C20.5442 15.8417 20.0474 15.7713 19.465 15.5426C19.0368 15.3667 18.3858 14.9444 18.0261 14.6102C17.6492 14.2583 17.1696 13.5898 16.964 13.0972C16.6728 12.4815 16.5529 11.9009 16.5529 11.162C16.5529 10.4231 16.6728 9.84259 16.964 9.22685C17.1867 8.75185 17.6321 8.10093 17.9404 7.78426C18.2659 7.48519 18.8655 7.06296 19.2937 6.86944C19.8076 6.62315 20.4243 6.5 21.178 6.5C21.8804 6.5 22.5484 6.62315 22.9767 6.81667Z" fill="white"/>
<path d="M25.1179 16.7037C24.6897 16.5806 23.8503 16.4222 23.2336 16.3519C22.6169 16.2639 21.3151 16.2287 20.3215 16.2815C19.328 16.3343 18.0261 16.4926 17.4094 16.6333C17.0605 16.713 16.6019 16.8715 16.1701 17.0482C16.3364 17.8234 16.424 18.6286 16.424 19.4545C16.424 21.6804 15.7877 23.7549 14.6901 25.5H30L29.8972 23.3537C29.7944 21.4889 29.7088 21.0315 29.2977 20.0639C29.0065 19.413 28.5268 18.6917 28.15 18.3574C27.8074 18.0231 27.1564 17.5657 26.711 17.337C26.2485 17.1083 25.5462 16.8269 25.1179 16.7037Z" fill="white"/>
<path fill-rule="evenodd" clip-rule="evenodd" d="M2 18.5909C2 18.0706 2.41441 17.6488 2.92561 17.6488L7.86217 17.6488V12.624C7.86217 12.1036 8.27658 11.6818 8.78778 11.6818C9.29898 11.6818 9.71339 12.1036 9.71339 12.624V17.6488L14.65 17.6488C15.1612 17.6488 15.5756 18.0706 15.5756 18.5909C15.5756 19.1112 15.1612 19.5331 14.65 19.5331L9.71339 19.5331V24.5579C9.71339 25.0782 9.29898 25.5 8.78778 25.5C8.27658 25.5 7.86217 25.0782 7.86217 24.5579V19.5331H2.92561C2.41441 19.5331 2 19.1112 2 18.5909Z" fill="white"/>
</g>
</g>
</svg>
