<svg width="343" height="110" viewBox="0 0 343 110" fill="none" xmlns="http://www.w3.org/2000/svg">
<g clip-path="url(#clip0_558_1542)">
<rect width="343" height="110" fill="black"/>
<rect opacity="0.5" x="190" y="-43" width="177" height="177" fill="url(#paint0_radial_558_1542)"/>
<rect opacity="0.5" x="-68" width="177" height="177" fill="url(#paint1_radial_558_1542)" fill-opacity="0.7"/>
<rect opacity="0.3" x="159" width="177" height="177" fill="url(#paint2_radial_558_1542)" fill-opacity="0.4"/>
<rect opacity="0.22" x="-40" y="-97" width="177" height="177" fill="url(#paint3_radial_558_1542)"/>
<rect opacity="0.3" x="128" y="-97" width="177" height="177" fill="url(#paint4_radial_558_1542)"/>
<path opacity="0.7" d="M325.936 77.4635C326.141 77.5606 326.382 77.7245 326.482 77.8136C326.582 77.9027 326.743 78.1628 326.828 78.4043C326.91 78.6356 326.969 78.9655 326.965 79.1479C326.968 79.3168 326.88 79.6192 326.785 79.834C326.686 80.0388 326.167 80.6069 325.613 81.1083C325.069 81.606 324.011 82.5569 323.276 83.2242C322.54 83.8914 320.314 85.9003 318.34 87.6844C316.365 89.4685 314.263 91.3769 313.666 91.9162C313.018 92.5074 312.505 93.0619 312.376 93.3111C312.264 93.5432 312.185 93.9333 312.192 94.1797C312.209 94.4226 312.837 97.0071 313.578 99.9136C314.32 102.82 315.336 106.795 315.838 108.734C316.331 110.676 316.759 112.437 316.765 112.65C316.782 112.859 316.743 113.201 316.668 113.408C316.593 113.616 316.386 113.938 316.199 114.117C316.007 114.287 315.714 114.492 315.552 114.55C315.389 114.607 315.018 114.625 314.742 114.587C314.38 114.534 313.499 114.076 311.748 113.065C310.371 112.273 306.797 110.209 303.782 108.468C300.781 106.733 298.121 105.218 297.881 105.121C297.528 104.963 297.355 104.957 296.87 105.105C296.413 105.233 295.525 105.761 292.879 107.455C291.005 108.649 288.706 110.129 287.755 110.737C286.804 111.344 284.755 112.657 283.187 113.652C281.343 114.836 280.199 115.512 279.925 115.575C279.694 115.634 279.303 115.625 279.06 115.552C278.817 115.479 278.47 115.274 278.28 115.092C278.049 114.857 277.919 114.62 277.822 114.247C277.713 113.81 277.765 113.407 278.157 111.639C278.412 110.485 279.056 107.621 279.589 105.249C280.125 102.886 280.842 99.6455 281.196 98.0607C281.55 96.4758 281.827 94.9973 281.811 94.7882C281.787 94.559 281.687 94.2773 281.562 94.084C281.443 93.9108 280.743 93.287 280.013 92.7076C279.282 92.1283 277.515 90.7159 276.072 89.5738C274.639 88.4281 273.01 87.148 272.469 86.7168C271.928 86.2855 270.454 85.1204 269.213 84.1328C267.963 83.1488 266.788 82.1835 266.598 82.0017C266.339 81.7537 266.217 81.5367 266.116 81.1538C266.043 80.8512 266.03 80.4597 266.098 80.2319C266.156 80.0078 266.355 79.6659 266.54 79.4762C266.724 79.2866 267.017 79.0812 267.179 79.0238C267.342 78.9664 268.955 78.747 270.76 78.5507C272.55 78.3479 275.089 78.062 276.383 77.9101C278.153 77.7145 278.973 77.6738 279.641 77.7545C280.242 77.8366 280.826 78.0035 281.429 78.2882C282.211 78.657 283.127 79.3743 288.762 84.0031C293.479 87.8807 295.302 89.319 295.575 89.3809C295.862 89.4492 296.076 89.4076 296.491 89.2267C296.965 89.0142 297.059 88.9244 297.24 88.4984C297.404 88.0896 297.412 87.9509 297.252 87.4982C297.149 87.2065 296.754 86.3162 296.378 85.5099C296.005 84.7138 294.598 81.6691 293.247 78.7517C291.906 75.8306 290.663 73.0562 290.492 72.5733C290.258 71.9094 290.169 71.4653 290.159 70.8237C290.139 70.3445 290.197 69.6677 290.28 69.3214C290.36 68.9651 291.128 66.8716 291.979 64.6583C292.828 62.4348 293.735 60.0886 293.984 59.4348C294.269 58.6891 294.57 58.1188 294.768 57.9356C294.946 57.7596 295.236 57.5779 295.395 57.5105C295.557 57.453 295.914 57.4287 296.17 57.4403C296.429 57.4619 296.791 57.5827 296.98 57.697C297.169 57.8113 297.414 58.0528 297.543 58.2224C297.661 58.3956 299.011 61.2793 300.539 64.6322C302.077 67.9815 303.791 71.7325 304.351 72.9606C304.91 74.1886 305.51 75.3685 305.677 75.5813C305.843 75.794 306.149 76.0139 306.396 76.0966C306.618 76.1765 307.464 76.2737 308.268 76.3178C309.071 76.3619 311.006 76.4702 312.577 76.549C314.15 76.6379 316.773 76.786 318.405 76.877C320.037 76.9681 322.322 77.0996 323.474 77.1567C324.84 77.2397 325.699 77.3434 325.936 77.4635Z" fill="url(#paint5_linear_558_1542)"/>
<path opacity="0.5" d="M252.329 32.2137C252.49 32.1794 252.7 32.1682 252.796 32.1756C252.893 32.183 253.099 32.2622 253.253 32.3635C253.402 32.4607 253.58 32.6241 253.658 32.7307C253.733 32.8266 253.815 33.0386 253.855 33.2038C253.887 33.3648 253.838 33.9184 253.739 34.4489C253.644 34.973 253.453 35.9824 253.323 36.6876C253.192 37.3928 252.793 39.5216 252.44 41.4109C252.086 43.3002 251.714 45.3166 251.607 45.8882C251.493 46.5114 251.442 47.0543 251.477 47.254C251.514 47.4364 251.639 47.6952 251.751 47.8337C251.867 47.9656 253.359 49.1756 255.058 50.5208C256.756 51.8659 259.08 53.7046 260.217 54.5985C261.35 55.4988 262.367 56.3231 262.464 56.4424C262.565 56.5552 262.693 56.7688 262.74 56.921C262.788 57.0731 262.81 57.3483 262.781 57.5337C262.745 57.7149 262.667 57.9611 262.599 58.0653C262.53 58.1694 262.325 58.342 262.15 58.441C261.919 58.5687 261.212 58.6915 259.763 58.8774C258.626 59.025 255.669 59.404 253.175 59.7235C250.691 60.0406 248.5 60.3348 248.32 60.3844C248.048 60.448 247.945 60.5203 247.732 60.8177C247.525 61.0914 247.247 61.7835 246.468 63.9148C245.914 65.4214 245.241 67.2781 244.961 68.0433C244.68 68.8085 244.078 70.4599 243.613 71.718C243.071 73.2052 242.71 74.094 242.58 74.2506C242.473 74.3853 242.245 74.5517 242.073 74.6162C241.902 74.6808 241.613 74.7145 241.424 74.6932C241.188 74.6595 241.01 74.58 240.791 74.4084C240.537 74.205 240.39 73.9508 239.842 72.7635C239.483 71.989 238.599 70.0614 237.867 68.4653C237.141 66.8735 236.134 64.6978 235.643 63.6324C235.153 62.5669 234.665 61.5961 234.564 61.4834C234.45 61.3621 234.269 61.2439 234.112 61.1877C233.969 61.1401 233.293 61.0882 232.62 61.0751C231.947 61.062 230.313 61.0243 228.984 61C227.659 60.9692 226.163 60.9469 225.663 60.936C225.164 60.925 223.807 60.901 222.662 60.8766C221.513 60.8586 220.415 60.8185 220.227 60.7972C219.969 60.7682 219.804 60.6971 219.578 60.5213C219.404 60.3793 219.225 60.1599 219.165 59.9993C219.1 59.8452 219.065 59.5616 219.088 59.3719C219.11 59.1823 219.189 58.936 219.257 58.8319C219.325 58.7278 220.156 57.8955 221.107 56.9928C222.047 56.0924 223.38 54.817 224.057 54.1631C224.988 53.2757 225.441 52.8935 225.861 52.6473C226.241 52.4317 226.65 52.2716 227.121 52.1711C227.732 52.0408 228.572 52.0519 233.836 52.2444C238.244 52.4067 239.92 52.4353 240.104 52.3513C240.299 52.2649 240.403 52.1474 240.563 51.8614C240.742 51.5321 240.757 51.4394 240.674 51.1155C240.589 50.8089 240.533 50.7257 240.243 50.5356C240.056 50.4132 239.44 50.0744 238.871 49.776C238.308 49.4818 236.167 48.3487 234.113 47.264C232.064 46.1729 230.136 45.1232 229.826 44.9205C229.401 44.6418 229.156 44.4254 228.869 44.061C228.647 43.7948 228.384 43.3807 228.281 43.1453C228.17 42.9057 227.695 41.3667 227.216 39.7223C226.729 38.0737 226.224 36.3285 226.08 35.844C225.918 35.2909 225.841 34.8314 225.875 34.6395C225.9 34.4606 225.987 34.2292 226.048 34.1209C226.117 34.0168 226.311 33.8465 226.463 33.7413C226.621 33.6404 226.882 33.551 227.041 33.534C227.2 33.517 227.446 33.5483 227.594 33.5895C227.738 33.6372 229.776 34.7027 232.122 35.9601C234.471 37.2111 237.098 38.6157 237.957 39.0762C238.816 39.5367 239.677 39.952 239.866 40.0013C240.055 40.0506 240.327 40.0429 240.505 39.9825C240.668 39.931 241.196 39.6167 241.677 39.2901C242.158 38.9635 243.317 38.1788 244.254 37.5366L244.26 37.5323C245.204 36.8939 246.771 35.834 247.746 35.1735C248.723 34.5115 250.094 33.5864 250.78 33.1152C251.601 32.5649 252.14 32.2483 252.329 32.2137Z" fill="url(#paint6_linear_558_1542)"/>
<path d="M334.891 -49.6027C335.243 -49.7751 335.721 -49.9226 335.947 -49.9611C336.174 -49.9996 336.693 -49.9347 337.106 -49.7887C337.502 -49.6487 338.004 -49.3721 338.242 -49.1692C338.469 -48.99 338.777 -48.5451 338.959 -48.184C339.124 -47.829 339.317 -46.5144 339.384 -45.2248C339.457 -43.9528 339.576 -41.4975 339.667 -39.7839C339.758 -38.0703 340.019 -32.8945 340.253 -28.3016C340.488 -23.7086 340.749 -18.8094 340.819 -17.4197C340.904 -15.9063 341.086 -14.6154 341.278 -14.1718C341.465 -13.7695 341.897 -13.2406 342.232 -12.9837C342.574 -12.7443 346.686 -10.7954 351.349 -8.65177C356.013 -6.50813 362.392 -3.57939 365.511 -2.15999C368.624 -0.723007 371.426 0.604426 371.716 0.82555C372.012 1.02909 372.424 1.45174 372.619 1.77768C372.813 2.10362 373.018 2.72981 373.053 3.17747C373.071 3.61905 373.027 4.23644 372.927 4.51775C372.828 4.79906 372.451 5.3184 372.101 5.64975C371.639 6.07983 370.077 6.77364 366.841 8.04224C364.299 9.04238 357.691 11.631 352.117 13.8138C346.567 15.9852 341.676 17.9348 341.289 18.1538C340.697 18.4588 340.5 18.686 340.174 19.5002C339.849 20.2556 339.591 22.0239 338.978 27.4249C338.537 31.2449 338.017 35.9467 337.796 37.8861C337.575 39.8256 337.102 44.01 336.728 47.2012C336.306 50.9684 335.967 53.2419 335.753 53.6808C335.582 54.0554 335.147 54.5741 334.788 54.8229C334.429 55.0718 333.781 55.3172 333.334 55.3767C332.771 55.4349 332.316 55.3531 331.715 55.0812C331.017 54.7553 330.538 54.2495 328.613 51.8083C327.356 50.2164 324.247 46.249 321.672 42.9646C319.114 39.6862 315.584 35.2137 313.862 33.022C312.139 30.8304 310.475 28.8572 310.179 28.6536C309.848 28.4379 309.367 28.2675 308.974 28.2276C308.616 28.1999 307.03 28.4697 305.47 28.8281C303.911 29.1865 300.123 30.0426 297.044 30.754C293.972 31.4478 290.509 32.2606 289.351 32.5236C288.194 32.7867 285.051 33.515 282.398 34.1195C279.738 34.7417 277.185 35.2826 276.738 35.3422C276.128 35.4233 275.707 35.3537 275.089 35.0757C274.609 34.8465 274.075 34.4401 273.846 34.102C273.611 33.7814 273.372 33.1431 273.319 32.6893C273.267 32.2356 273.311 31.6182 273.41 31.3369C273.51 31.0556 274.964 28.6421 276.654 25.996C278.322 23.3614 280.688 19.6287 281.886 17.7183C283.541 15.1189 284.373 13.9693 285.203 13.1552C285.962 12.4343 286.816 11.8264 287.847 11.3206C289.182 10.6653 291.126 10.2055 303.37 7.61214C313.624 5.44281 317.506 4.54072 317.883 4.23913C318.285 3.92603 318.461 3.59265 318.67 2.83596C318.9 1.96768 318.882 1.74385 318.512 1.03922C318.146 0.375845 317.971 0.2149 317.196 -0.0589717C316.697 -0.235467 315.087 -0.666223 313.609 -1.03071C312.148 -1.38911 306.581 -2.78417 301.245 -4.11769C295.914 -5.46879 290.883 -6.79284 290.057 -7.08497C288.921 -7.48665 288.236 -7.84776 287.373 -8.52872C286.714 -9.01898 285.877 -9.8291 285.507 -10.316C285.12 -10.809 283.17 -14.1096 281.151 -17.6524C279.115 -21.2012 276.979 -24.9631 276.38 -26.0058C275.697 -27.1966 275.265 -28.2198 275.236 -28.685C275.195 -29.1151 275.267 -29.7027 275.349 -29.9901C275.449 -30.2714 275.803 -30.7793 276.094 -31.1113C276.403 -31.4373 276.956 -31.7956 277.312 -31.9268C277.668 -32.058 278.254 -32.1277 278.619 -32.1175C278.977 -32.0898 284.268 -30.7921 290.375 -29.226C296.488 -27.6774 303.325 -25.9321 305.562 -25.3586C307.798 -24.7852 310.015 -24.3179 310.477 -24.3125C310.94 -24.3071 311.564 -24.4822 311.94 -24.725C312.286 -24.9387 313.33 -25.974 314.258 -27.0107C315.186 -28.0473 317.423 -30.5399 319.226 -32.5726L319.231 -32.5772C321.051 -34.6044 324.082 -37.9786 325.966 -40.0794C327.852 -42.1818 330.499 -45.1227 331.821 -46.6138C333.409 -48.3666 334.476 -49.4134 334.891 -49.6027Z" fill="url(#paint7_linear_558_1542)"/>
<path opacity="0.4" d="M244.012 95.8918C244.093 95.9452 244.185 96.0291 244.222 96.0729C244.259 96.1166 244.311 96.2364 244.333 96.3437C244.354 96.4466 244.359 96.5898 244.346 96.6668C244.337 96.7384 244.282 96.8611 244.228 96.9463C244.174 97.027 243.92 97.2362 243.656 97.415C243.395 97.5928 242.89 97.9315 242.539 98.1696C242.187 98.4077 241.124 99.1237 240.181 99.7598C239.237 100.396 238.233 101.077 237.947 101.269C237.637 101.48 237.387 101.684 237.317 101.782C237.256 101.873 237.199 102.034 237.187 102.138C237.18 102.242 237.289 103.374 237.428 104.649C237.567 105.924 237.757 107.667 237.853 108.518C237.944 109.37 238.019 110.141 238.009 110.232C238.003 110.321 237.966 110.463 237.922 110.547C237.878 110.63 237.771 110.754 237.681 110.819C237.589 110.879 237.453 110.948 237.381 110.963C237.308 110.977 237.15 110.962 237.036 110.929C236.886 110.885 236.54 110.638 235.86 110.105C235.325 109.686 233.937 108.597 232.766 107.679C231.6 106.764 230.566 105.962 230.47 105.907C230.33 105.818 230.257 105.805 230.043 105.839C229.842 105.865 229.434 106.035 228.212 106.593C227.347 106.985 226.285 107.473 225.846 107.673C225.407 107.873 224.46 108.305 223.736 108.631C222.885 109.021 222.36 109.238 222.24 109.248C222.139 109.259 221.973 109.232 221.875 109.187C221.777 109.141 221.642 109.033 221.573 108.945C221.489 108.831 221.448 108.723 221.43 108.56C221.41 108.368 221.456 108.201 221.729 107.476C221.906 107.003 222.352 105.829 222.72 104.858C223.09 103.89 223.588 102.562 223.834 101.912C224.079 101.263 224.286 100.654 224.291 100.564C224.295 100.466 224.27 100.34 224.228 100.251C224.189 100.171 223.93 99.8643 223.656 99.575C223.381 99.2858 222.719 98.5815 222.177 98.011C221.639 97.4397 221.027 96.7997 220.824 96.5845C220.621 96.3694 220.067 95.7873 219.602 95.2946C219.132 94.8027 218.693 94.3233 218.623 94.2349C218.529 94.1143 218.49 94.0151 218.47 93.8469C218.458 93.7145 218.476 93.548 218.518 93.4557C218.557 93.3643 218.661 93.2316 218.751 93.1624C218.84 93.0933 218.977 93.024 219.049 93.0095C219.121 92.995 219.817 92.9994 220.593 93.0251C221.363 93.0473 222.454 93.0793 223.012 93.0931C223.773 93.117 224.122 93.1492 224.4 93.2236C224.649 93.2946 224.886 93.4005 225.125 93.5573C225.433 93.7606 225.778 94.1194 227.884 96.4183C229.647 98.344 230.331 99.0626 230.443 99.1053C230.56 99.1515 230.653 99.1468 230.84 99.0953C231.053 99.0339 231.099 99.0015 231.201 98.8321C231.295 98.669 231.307 98.6108 231.266 98.4095C231.24 98.2799 231.127 97.8792 231.016 97.5153C230.906 97.1558 230.494 95.7823 230.098 94.466C229.707 93.1488 229.348 91.8996 229.305 91.6849C229.246 91.3898 229.235 91.1965 229.27 90.9243C229.29 90.7202 229.355 90.4373 229.411 90.2957C229.467 90.1497 229.918 89.31 230.412 88.4245C230.905 87.5346 231.43 86.5962 231.575 86.3345C231.741 86.0361 231.903 85.8128 231.997 85.7472C232.083 85.6835 232.217 85.624 232.288 85.6051C232.361 85.5906 232.513 85.6018 232.621 85.6221C232.729 85.6469 232.875 85.7199 232.948 85.7796C233.021 85.8394 233.11 85.9564 233.155 86.0359C233.194 86.1164 233.592 87.4183 234.036 88.9296C234.485 90.4399 234.985 92.1309 235.147 92.6844C235.31 93.2379 235.493 93.7735 235.551 93.8736C235.608 93.9737 235.725 94.0852 235.824 94.1351C235.913 94.1823 236.265 94.2744 236.603 94.3415C236.94 94.4087 237.753 94.5712 238.413 94.6992L238.419 94.7005C239.081 94.8332 240.177 95.053 240.86 95.1895C241.545 95.3264 242.505 95.5199 242.988 95.6134C243.562 95.731 243.919 95.8267 244.012 95.8918Z" fill="url(#paint8_linear_558_1542)"/>
</g>
<defs>
<radialGradient id="paint0_radial_558_1542" cx="0" cy="0" r="1" gradientUnits="userSpaceOnUse" gradientTransform="translate(278.5 45.5) rotate(90) scale(88.5)">
<stop stop-color="#5A60FF" stop-opacity="0.8"/>
<stop offset="1" stop-color="#0D0D0D" stop-opacity="0"/>
</radialGradient>
<radialGradient id="paint1_radial_558_1542" cx="0" cy="0" r="1" gradientUnits="userSpaceOnUse" gradientTransform="translate(20.5 88.5) rotate(90) scale(88.5)">
<stop stop-color="#5A60FF" stop-opacity="0.8"/>
<stop offset="1" stop-color="#0D0D0D" stop-opacity="0"/>
</radialGradient>
<radialGradient id="paint2_radial_558_1542" cx="0" cy="0" r="1" gradientUnits="userSpaceOnUse" gradientTransform="translate(247.5 88.5) rotate(90) scale(88.5)">
<stop stop-color="#5A60FF" stop-opacity="0.8"/>
<stop offset="1" stop-color="#0D0D0D" stop-opacity="0"/>
</radialGradient>
<radialGradient id="paint3_radial_558_1542" cx="0" cy="0" r="1" gradientUnits="userSpaceOnUse" gradientTransform="translate(48.5 -8.5) rotate(90) scale(88.5)">
<stop stop-color="#FF6DF8"/>
<stop offset="1" stop-color="#0D0D0D" stop-opacity="0"/>
</radialGradient>
<radialGradient id="paint4_radial_558_1542" cx="0" cy="0" r="1" gradientUnits="userSpaceOnUse" gradientTransform="translate(216.5 -8.5) rotate(90) scale(88.5)">
<stop stop-color="#FF6DF8"/>
<stop offset="1" stop-color="#0D0D0D" stop-opacity="0"/>
</radialGradient>
<linearGradient id="paint5_linear_558_1542" x1="18.5307" y1="188.015" x2="58.0611" y2="255.211" gradientUnits="userSpaceOnUse">
<stop offset="0.258032" stop-color="#5A60FF"/>
<stop offset="0.932973" stop-color="#888CFB"/>
</linearGradient>
<linearGradient id="paint6_linear_558_1542" x1="124.124" y1="230.298" x2="176.25" y2="251.596" gradientUnits="userSpaceOnUse">
<stop offset="0.258032" stop-color="#5A60FF"/>
<stop offset="0.932973" stop-color="#888CFB"/>
</linearGradient>
<linearGradient id="paint7_linear_558_1542" x1="149.253" y1="484.61" x2="281.191" y2="504.557" gradientUnits="userSpaceOnUse">
<stop offset="0.258032" stop-color="#5A60FF"/>
<stop offset="0.932973" stop-color="#888CFB"/>
</linearGradient>
<linearGradient id="paint8_linear_558_1542" x1="107.235" y1="124.149" x2="119.915" y2="154.973" gradientUnits="userSpaceOnUse">
<stop offset="0.258032" stop-color="#5A60FF"/>
<stop offset="0.932973" stop-color="#888CFB"/>
</linearGradient>
<clipPath id="clip0_558_1542">
<rect width="343" height="110" fill="white"/>
</clipPath>
</defs>
</svg>
