<svg width="33" height="32" viewBox="0 0 33 32" fill="none" xmlns="http://www.w3.org/2000/svg">
<path fill-rule="evenodd" clip-rule="evenodd" d="M10.2034 3C10.5501 3 10.6897 3.02033 10.8389 3.10166C10.9448 3.15758 11.0844 3.28974 11.1518 3.39648C11.2144 3.49814 11.2914 3.70147 11.3203 3.83871C11.354 3.99629 11.3684 4.55543 11.3588 5.31281C11.3444 6.41584 11.3347 6.55308 11.2433 6.76149C11.1903 6.88856 11.0652 7.0563 10.9592 7.14272C10.7859 7.28504 10.7378 7.29521 10.3142 7.31046C10.059 7.32063 9.77981 7.31554 9.69798 7.30029C9.61132 7.28504 9.47172 7.2088 9.38988 7.13255C9.30323 7.05122 9.19251 6.89873 9.13474 6.7869C9.03846 6.59374 9.03364 6.51241 9.03364 3.72688L9.17806 3.47781C9.27916 3.30499 9.38988 3.19316 9.53911 3.11183C9.71723 3.02033 9.83277 3 10.2034 3ZM22.3684 3C22.7776 3 22.8787 3.02033 23.0424 3.11691C23.1531 3.18299 23.2927 3.3304 23.5238 3.72688V5.15523C23.5238 6.52258 23.519 6.59374 23.4179 6.7869C23.3649 6.89873 23.2638 7.04106 23.2013 7.10205C23.1435 7.16305 23.0328 7.23421 22.9606 7.26471C22.8835 7.29521 22.6188 7.32063 22.3684 7.32063C22.1181 7.32063 21.8533 7.29521 21.7811 7.26471C21.7041 7.23421 21.5934 7.16305 21.5356 7.10205C21.473 7.04106 21.3719 6.89873 21.319 6.7869C21.2179 6.59374 21.2131 6.52258 21.2131 3.72688L21.3768 3.47781C21.4634 3.34057 21.6175 3.17791 21.7137 3.11691C21.863 3.01525 21.9544 3 22.3684 3ZM8.23933 5.64321V5.98377C8.23933 6.17693 8.2634 6.46667 8.29229 6.63441C8.32117 6.80215 8.39819 7.04614 8.46078 7.1783C8.52336 7.31554 8.66778 7.51887 8.78332 7.64086C8.89404 7.75777 9.09623 7.91535 9.2262 7.98143C9.44765 8.09834 9.51986 8.1085 10.189 8.1085C10.863 8.1085 10.9255 8.09834 11.147 7.98143C11.2722 7.91026 11.4743 7.75269 11.5947 7.62561C11.715 7.49853 11.8595 7.27996 11.9269 7.14272C11.9894 7.00039 12.0617 6.74115 12.0905 6.55816C12.1146 6.37517 12.1387 6.0956 12.1387 5.64321H20.3947L20.4284 6.16168C20.4476 6.49717 20.4958 6.7869 20.5584 6.96481C20.6161 7.1173 20.722 7.33079 20.7943 7.44262C20.8665 7.54936 21.0205 7.71202 21.1409 7.8086C21.2612 7.9001 21.4538 8.01193 21.5741 8.05767C21.7282 8.11359 21.9641 8.13392 22.3684 8.13392C22.7728 8.13392 23.0087 8.11359 23.1627 8.05767C23.2831 8.01193 23.4757 7.9001 23.596 7.8086C23.7164 7.71202 23.8704 7.54936 23.9426 7.44262C24.0148 7.33079 24.1207 7.1173 24.1785 6.96481C24.2411 6.7869 24.2892 6.49717 24.3422 5.64321H25.0402C25.4253 5.64321 25.873 5.66862 26.0415 5.69404C26.2052 5.72454 26.4411 5.80078 26.5711 5.86686C26.6962 5.93294 26.884 6.08543 26.9947 6.20743C27.1006 6.32942 27.2306 6.54291 27.2835 6.68524C27.375 6.93431 27.375 7.16813 27.375 17.3089C27.375 25.6299 27.3606 27.7241 27.3124 27.9071C27.2787 28.0342 27.168 28.2477 27.0717 28.39C26.9369 28.5781 26.8021 28.6899 26.2293 29H6.52073L6.18857 28.8221C5.94787 28.6899 5.81307 28.5781 5.67828 28.39C5.582 28.2477 5.47128 28.0342 5.43758 27.9071C5.38944 27.7241 5.375 25.6299 5.375 17.3089C5.375 7.16813 5.375 6.93431 5.46647 6.68524C5.51942 6.54291 5.6494 6.32942 5.75531 6.20743C5.86603 6.08543 6.05377 5.93294 6.17894 5.86686C6.30892 5.80078 6.52555 5.72454 6.66034 5.69912C6.79995 5.6737 7.21395 5.65337 8.23933 5.64321ZM7.32467 26.7889H25.3772V10.4213H7.32467V26.7889ZM14.8586 12.4291L15.0175 12.541C15.0993 12.607 15.21 12.7341 15.2533 12.8205C15.2967 12.912 15.3496 13.0798 15.3689 13.1916C15.3881 13.3085 15.3833 13.5067 15.3544 13.6491C15.3159 13.827 15.2437 13.9642 14.9356 14.3099L12.3216 14.32C9.82314 14.3353 9.70279 14.3302 9.56318 14.2387C9.48135 14.1828 9.37062 14.0506 9.31286 13.9439C9.25509 13.8371 9.19251 13.6592 9.17806 13.5474C9.15881 13.4356 9.16844 13.2424 9.20213 13.1153C9.23102 12.9883 9.31286 12.8104 9.37544 12.7138C9.43802 12.6223 9.55837 12.5155 9.64502 12.4749C9.775 12.419 10.2805 12.4088 14.8586 12.4291ZM20.6498 12.4037C22.5947 12.4037 23.1483 12.419 23.2735 12.4698C23.3553 12.5105 23.4805 12.607 23.5479 12.6884C23.6153 12.7697 23.7019 12.9273 23.7356 13.0391C23.7741 13.1509 23.7934 13.3441 23.7789 13.4712C23.7693 13.5982 23.7164 13.7914 23.6634 13.9032C23.6056 14.0151 23.4901 14.1574 23.235 14.3404H18.1321L17.9636 14.2235C17.8722 14.1574 17.747 14.0049 17.6844 13.8778C17.6122 13.7253 17.5785 13.5576 17.5785 13.3695C17.5785 13.1763 17.6122 13.0188 17.6892 12.8612C17.7614 12.7138 17.8722 12.5918 17.9925 12.5206C18.1803 12.4037 18.1851 12.4037 20.645 12.4037H20.6498ZM14.8634 15.9365L15.0223 16.0483C15.1041 16.1144 15.2148 16.2414 15.2582 16.3279C15.3015 16.4194 15.3544 16.5871 15.3737 16.6989C15.3929 16.8158 15.3881 17.0141 15.3592 17.1564C15.3207 17.3343 15.2485 17.4716 14.9404 17.8172L12.3264 17.8274C9.82795 17.8426 9.7076 17.8375 9.568 17.746C9.48616 17.6901 9.37544 17.558 9.31767 17.4512C9.2599 17.3445 9.19732 17.1564 9.17806 17.0293C9.15881 16.8921 9.16844 16.7193 9.20695 16.5973C9.24065 16.4854 9.31767 16.3177 9.38025 16.2211C9.44283 16.1296 9.56318 16.0229 9.64984 15.9822C9.77981 15.9263 10.2853 15.9161 14.8634 15.9365ZM20.6787 15.911C22.6862 15.911 23.1916 15.9263 23.3024 15.9822C23.3746 16.0178 23.4853 16.1144 23.5527 16.1957C23.6201 16.277 23.7067 16.4346 23.7404 16.5464C23.7789 16.6583 23.7982 16.8514 23.7838 16.9785C23.7741 17.1056 23.7212 17.2987 23.6682 17.4106C23.6104 17.5224 23.4949 17.6647 23.2398 17.8477H18.1369L17.9684 17.7308C17.877 17.6647 17.7518 17.5122 17.6892 17.3851C17.5978 17.2022 17.5785 17.0903 17.5929 16.8209C17.6026 16.5566 17.6363 16.4448 17.7374 16.2872C17.8144 16.1754 17.9444 16.0432 18.0262 15.9975C18.1658 15.9212 18.4595 15.911 20.6787 15.911ZM12.3457 19.4336C14.8393 19.4438 14.8827 19.4438 15.0175 19.5505C15.0897 19.6115 15.1956 19.7335 15.2485 19.8301C15.2967 19.9267 15.3544 20.0944 15.3737 20.2063C15.3929 20.3181 15.3881 20.5214 15.3592 20.6637C15.3207 20.8416 15.2485 20.9789 14.9404 21.3245H9.63539L9.45246 21.1212C9.35137 21.0094 9.24546 20.8264 9.21658 20.7146C9.18288 20.6027 9.15881 20.4553 9.15881 20.3842C9.15881 20.313 9.19251 20.1554 9.23102 20.0283C9.27434 19.9013 9.34655 19.7437 9.38988 19.6725C9.43802 19.6065 9.54874 19.52 9.64021 19.4845C9.77019 19.4336 10.3864 19.4235 12.3457 19.4336ZM20.6739 19.4184C22.6862 19.4184 23.1916 19.4336 23.2975 19.4895C23.3746 19.5251 23.4853 19.6217 23.5527 19.703C23.6201 19.7844 23.7067 19.9419 23.7404 20.0538C23.7789 20.1656 23.7982 20.3587 23.7838 20.4858C23.7693 20.6129 23.7212 20.8061 23.6682 20.9128C23.6201 21.0246 23.4997 21.167 23.2398 21.35L18.1369 21.355L17.9684 21.2381C17.877 21.172 17.7518 21.0196 17.6892 20.8925C17.5978 20.7095 17.5785 20.5977 17.5929 20.3282C17.6026 20.0639 17.6363 19.9521 17.7374 19.7945C17.8144 19.6827 17.9444 19.5505 18.0262 19.5048C18.1658 19.4285 18.4595 19.4184 20.6739 19.4184ZM12.3216 22.9359C14.8393 22.9511 14.8827 22.9511 15.0175 23.0579C15.0897 23.1189 15.1956 23.2409 15.2485 23.3374C15.2967 23.434 15.3544 23.6018 15.3737 23.7136C15.3929 23.8254 15.3881 24.0287 15.3592 24.1711C15.3207 24.349 15.2485 24.4862 14.9404 24.8319H9.63539L9.45246 24.6285C9.35137 24.5167 9.24546 24.3337 9.21658 24.2219C9.18288 24.1101 9.15881 23.9474 9.15881 23.8661C9.16362 23.7848 9.19251 23.6221 9.23583 23.5103C9.27434 23.3984 9.33211 23.2612 9.36581 23.2053C9.39951 23.1494 9.5006 23.063 9.59207 23.0121C9.74612 22.9308 9.95312 22.9257 12.3216 22.9359ZM20.6739 22.9257C22.6862 22.9257 23.1916 22.941 23.2975 22.9969C23.3746 23.0325 23.4853 23.129 23.5527 23.2104C23.6201 23.2917 23.7067 23.4493 23.7404 23.5611C23.7789 23.6729 23.7982 23.8661 23.7838 23.9932C23.7693 24.1202 23.7212 24.3134 23.6682 24.4201C23.6201 24.532 23.4997 24.6743 23.2398 24.8573L18.1369 24.8624L17.9684 24.7455C17.877 24.6794 17.7518 24.5269 17.6892 24.3998C17.5978 24.2168 17.5785 24.105 17.5929 23.8356C17.6026 23.5713 17.6363 23.4594 17.7374 23.3019C17.8144 23.19 17.9444 23.0579 18.0262 23.0121C18.1658 22.9359 18.4595 22.9257 20.6739 22.9257Z" fill="#ABABAB"/>
</svg>
