<svg width="33" height="32" viewBox="0 0 33 32" fill="none" xmlns="http://www.w3.org/2000/svg">
<path d="M5.55971 26.999C5.33934 27.0106 5.02103 26.918 4.89861 26.7907C4.75169 26.675 4.62927 25.9228 4.62927 25.1243C4.60478 23.8976 4.67824 23.643 5.04552 23.4347C5.29037 23.2959 7.91032 22.3817 10.8731 21.4096C13.8358 20.4375 16.4312 19.639 16.6271 19.639C16.823 19.639 19.4919 20.4491 22.5526 21.4559C25.6378 22.4511 28.2332 23.3769 28.3801 23.5042C28.5271 23.6315 28.625 24.3837 28.625 25.1822C28.625 26.3163 28.5515 26.6634 28.2577 26.8023C28.0618 26.8949 27.7435 26.9759 27.5966 26.9759C27.4252 26.9759 24.9767 26.2121 22.1364 25.2747C19.296 24.349 16.872 23.562 16.7496 23.5389C16.6271 23.5157 14.1296 24.2795 11.2403 25.24C8.35105 26.2005 5.78008 26.9875 5.55971 26.999Z" fill="#ABABAB"/>
<path d="M5.55971 19.6969C5.33934 19.7084 5.02103 19.6274 4.89861 19.5001C4.75169 19.3844 4.62927 18.6091 4.62927 17.7759C4.62927 16.3525 4.65375 16.2599 5.16795 16.0284C5.48626 15.8896 8.03274 15.0217 10.8731 14.0959C13.7134 13.1701 16.2109 12.3832 16.4557 12.3484C16.7251 12.3021 18.5615 12.8345 22.1853 14.0264C25.1236 14.9869 27.768 15.8896 28.0863 16.0284C28.6005 16.2599 28.625 16.3525 28.625 17.799C28.625 19.0141 28.5515 19.3728 28.2577 19.5117C28.0618 19.6043 27.8415 19.6853 27.768 19.6853C27.6946 19.6853 27.4497 19.639 27.2048 19.5812C26.9845 19.5233 24.5604 18.7479 21.8425 17.8453C19.1002 16.9542 16.7496 16.2136 16.6271 16.2136C16.5047 16.2136 14.0317 16.9889 11.1669 17.9495C8.32657 18.8984 5.78008 19.6853 5.55971 19.6969Z" fill="#ABABAB"/>
<path d="M6.34325 12.198C5.78008 12.3716 5.68214 12.3716 5.19243 12.2096C4.65375 12.0476 4.62927 11.9666 4.62927 10.5084C4.62927 9.66366 4.72721 8.92303 4.82515 8.85359C4.92309 8.78416 7.54303 7.89309 10.6282 6.86315C13.7379 5.83321 16.4312 5 16.6271 5C16.823 5 19.4674 5.81007 22.5036 6.80529C25.5398 7.78894 28.1598 8.69158 28.3312 8.79573C28.5271 8.92302 28.625 9.44378 28.625 10.4506C28.625 11.7814 28.576 11.955 28.1353 12.1633C27.6701 12.3832 27.6211 12.3832 26.9845 12.198C26.5927 12.0938 24.1197 11.2838 16.6271 8.8073L11.8035 10.4043C9.13459 11.2838 6.68604 12.0938 6.34325 12.198Z" fill="#ABABAB"/>
</svg>
