<svg width="32" height="32" viewBox="0 0 32 32" fill="none" xmlns="http://www.w3.org/2000/svg">
<g clip-path="url(#clip0_592_1545)">
<path fill-rule="evenodd" clip-rule="evenodd" d="M16 32C24.8366 32 32 24.8366 32 16C32 7.16344 24.8366 0 16 0C7.16344 0 0 7.16344 0 16C0 24.8366 7.16344 32 16 32ZM23.7782 23.7782C24.3639 23.1924 24.3639 22.2426 23.7782 21.6568L18.1213 16L23.7782 10.3431C24.3639 9.75735 24.3639 8.8076 23.7782 8.22181C23.1924 7.63603 22.2426 7.63603 21.6568 8.22181L16 13.8787L10.3431 8.22181C9.75735 7.63602 8.8076 7.63602 8.22181 8.22181C7.63603 8.8076 7.63603 9.75734 8.22181 10.3431L13.8787 16L8.22181 21.6568C7.63602 22.2426 7.63602 23.1924 8.22181 23.7782C8.8076 24.3639 9.75734 24.3639 10.3431 23.7782L16 18.1213L21.6568 23.7782C22.2426 24.3639 23.1924 24.3639 23.7782 23.7782Z" fill="#ABABAB"/>
</g>
<defs>
<clipPath id="clip0_592_1545">
<rect width="32" height="32" rx="16" fill="white"/>
</clipPath>
</defs>
</svg>
