<svg width="16" height="16" viewBox="0 0 16 16" fill="none" xmlns="http://www.w3.org/2000/svg">
<path fill-rule="evenodd" clip-rule="evenodd" d="M3.74059 12.2594C4.06137 12.5802 4.58146 12.5802 4.90224 12.2594L8 9.16166L11.0978 12.2594C11.4185 12.5802 11.9386 12.5802 12.2594 12.2594C12.5802 11.9386 12.5802 11.4185 12.2594 11.0978L9.16166 8L12.2594 4.90225C12.5802 4.58146 12.5802 4.06137 12.2594 3.74059C11.9386 3.41981 11.4185 3.4198 11.0978 3.74059L8 6.83834L4.90224 3.74059C4.58146 3.4198 4.06137 3.4198 3.74059 3.74059C3.4198 4.06137 3.4198 4.58146 3.74059 4.90225L6.83834 8L3.74059 11.0978C3.4198 11.4185 3.4198 11.9386 3.74059 12.2594Z" fill="white"/>
</svg>
