<svg width="16" height="16" viewBox="0 0 16 16" fill="none" xmlns="http://www.w3.org/2000/svg">
<g id="16x16">
<path id="vector" d="M8.82577 14H7.29492V12.827C6.9641 12.7671 6.65497 12.6682 6.36751 12.5302C5.85935 12.2863 5.44223 11.9423 5.11615 11.4981C4.79431 11.0539 4.58893 10.5269 4.5 9.91726L6.0118 9.66903C6.13037 10.2047 6.38445 10.6315 6.77405 10.9494C7.16788 11.2629 7.63793 11.4197 8.18421 11.4197C8.70932 11.4197 9.14126 11.2934 9.48004 11.0408C9.81881 10.7839 9.9882 10.4594 9.9882 10.0675C9.9882 9.79314 9.90774 9.57104 9.74682 9.4012C9.58591 9.227 9.32759 9.08329 8.97187 8.97006L6.7677 8.26456C5.48457 7.8552 4.84301 7.05389 4.84301 5.86064C4.84301 5.30321 4.97217 4.81764 5.23049 4.40392C5.49304 3.98585 5.86146 3.66576 6.33575 3.44366C6.62416 3.30596 6.94388 3.21092 7.29492 3.15857V2H8.82577V3.19025C9.10401 3.24577 9.36445 3.33024 9.60708 3.44366C10.0771 3.6614 10.4667 3.97496 10.7759 4.38432C11.0892 4.79368 11.3116 5.28579 11.4428 5.86064L9.87387 6.1546C9.81458 5.8454 9.69813 5.57322 9.5245 5.33805C9.35088 5.10288 9.13279 4.91998 8.87024 4.78933C8.60768 4.65868 8.31549 4.589 7.99365 4.58029C7.68451 4.57594 7.40714 4.62602 7.16153 4.73054C6.91591 4.8307 6.72111 4.97441 6.57713 5.16168C6.43315 5.34458 6.36116 5.55144 6.36116 5.78225C6.36116 6.0392 6.46068 6.25912 6.65971 6.44202C6.86298 6.62493 7.1827 6.78171 7.61887 6.91236L9.26407 7.40229C10.056 7.63745 10.6255 7.95754 10.9728 8.36255C11.3243 8.7632 11.5 9.29668 11.5 9.96298C11.5 10.5465 11.3581 11.0582 11.0744 11.4981C10.7907 11.9379 10.3926 12.282 9.88022 12.5302C9.56082 12.6822 9.20934 12.7869 8.82577 12.8441V14Z" fill="currentColor"/>
</g>
</svg>
