<svg width="33" height="32" viewBox="0 0 33 32" fill="none" xmlns="http://www.w3.org/2000/svg">
<path fill-rule="evenodd" clip-rule="evenodd" d="M29.875 16C29.875 23.1797 24.0547 29 16.875 29C9.6953 29 3.875 23.1797 3.875 16C3.875 8.8203 9.6953 3 16.875 3C24.0547 3 29.875 8.8203 29.875 16ZM15.8929 23.7188H18.0252V22.2318C18.5594 22.1581 19.049 22.0235 19.4939 21.8279C20.2076 21.5086 20.762 21.066 21.1572 20.5002C21.5524 19.9343 21.75 19.276 21.75 18.5253C21.75 17.6681 21.5052 16.9818 21.0157 16.4664C20.532 15.9454 19.7387 15.5336 18.6357 15.2311L16.3441 14.6008C15.7366 14.4327 15.2913 14.231 15.0082 13.9957C14.7309 13.7604 14.5923 13.4775 14.5923 13.147C14.5923 12.85 14.6926 12.5839 14.8931 12.3486C15.0937 12.1077 15.365 11.9228 15.7071 11.794C16.0492 11.6595 16.4356 11.5951 16.8662 11.6007C17.3144 11.6119 17.7214 11.7015 18.0871 11.8696C18.4528 12.0377 18.7566 12.273 18.9984 12.5755C19.2402 12.878 19.4024 13.2282 19.485 13.626L21.6704 13.2478C21.4875 12.5083 21.1779 11.8752 20.7414 11.3486C20.3108 10.822 19.7681 10.4186 19.1134 10.1385C18.7755 9.99255 18.4127 9.88388 18.0252 9.81246V8.28125H15.8929V9.7717C15.404 9.83905 14.9586 9.96131 14.5569 10.1385C13.8963 10.4242 13.3832 10.836 13.0175 11.3738C12.6577 11.906 12.4778 12.5307 12.4778 13.2478C12.4778 14.7829 13.3714 15.8137 15.1586 16.3403L18.2287 17.2479C18.7241 17.3936 19.0839 17.5785 19.3081 17.8026C19.5322 18.0211 19.6443 18.3068 19.6443 18.6598C19.6443 19.164 19.4083 19.5814 18.9365 19.9119C18.4646 20.2368 17.863 20.3993 17.1316 20.3993C16.3707 20.3993 15.716 20.1976 15.1674 19.7942C14.6248 19.3853 14.2709 18.8362 14.1057 18.1471L12 18.4665C12.1239 19.2508 12.4099 19.9287 12.8582 20.5002C13.3124 21.0716 13.8934 21.5142 14.6012 21.8279C15.0016 22.0054 15.4321 22.1327 15.8929 22.2098V23.7188Z" fill="url(#paint0_linear_519_1175)"/>
<defs>
<linearGradient id="paint0_linear_519_1175" x1="17.1114" y1="149.25" x2="50.0919" y2="143.083" gradientUnits="userSpaceOnUse">
<stop offset="0.258032" stop-color="#5A60FF"/>
<stop offset="0.932973" stop-color="#888CFB"/>
</linearGradient>
</defs>
</svg>
