<svg width="16" height="16" viewBox="0 0 16 16" fill="none" xmlns="http://www.w3.org/2000/svg">
<path fill-rule="evenodd" clip-rule="evenodd" d="M9.35026 1C9.37403 1 9.44831 1.02431 9.51367 1.05165C9.57904 1.08204 9.66223 1.14889 9.70086 1.1975C9.73948 1.24612 9.78405 1.33423 9.79891 1.39197C9.82565 1.48312 9.75731 1.88724 9.36809 3.99899C9.11256 5.37239 8.90458 6.50271 8.90458 6.51183C8.90458 6.52094 9.62955 6.53006 10.5179 6.5331C12.0867 6.54221 12.1313 6.54525 12.2472 6.60602C12.3125 6.63944 12.3957 6.71541 12.4344 6.77314C12.4819 6.84606 12.5027 6.91899 12.4997 7.02837C12.4997 7.14687 12.4789 7.21372 12.4076 7.33222C12.3571 7.41426 11.1954 9.13709 9.82565 11.1607C8.4589 13.1844 7.30014 14.8677 7.2526 14.9072C7.20506 14.9436 7.11889 14.9831 7.06244 14.9923C7.00599 15.0044 6.91091 15.0014 6.85446 14.9892C6.79503 14.9771 6.7059 14.9193 6.6435 14.8555C6.57814 14.7917 6.52466 14.7006 6.51277 14.6398C6.49792 14.5638 6.61973 13.7738 6.95548 11.7836C7.211 10.2704 7.41898 9.01251 7.41898 8.9882C7.41898 8.9487 7.19317 8.93958 5.64518 8.92439C3.9724 8.9092 3.86247 8.90312 3.75253 8.84843C3.69014 8.81804 3.60992 8.74816 3.57426 8.69954C3.53564 8.64181 3.5089 8.54458 3.50295 8.44127C3.49404 8.30454 3.50295 8.25592 3.56238 8.16781C3.601 8.11007 4.82216 6.53006 6.2721 4.65835C7.72502 2.78663 8.94618 1.21877 8.99075 1.17016C9.03234 1.12458 9.12148 1.06685 9.18684 1.04254C9.25221 1.01823 9.32649 1 9.35026 1ZM6.04035 6.54221L4.97964 7.90953C5.89179 7.93992 6.59299 7.94903 7.13078 7.95207C8.03699 7.95511 8.11127 7.95815 8.22121 8.01588C8.28657 8.0493 8.36679 8.12223 8.39948 8.17692C8.43216 8.23465 8.4589 8.32885 8.4589 8.41089C8.4589 8.48685 8.31925 9.39536 8.14693 10.4315C7.9746 11.4676 7.83792 12.3245 7.84089 12.3366C7.84684 12.3488 8.58072 11.2731 9.47505 9.9514L11.0973 7.54491C11.0837 7.54477 11.0701 7.54463 11.0565 7.54449C8.2031 7.51453 8.17319 7.51421 8.07265 7.44768C8.01619 7.41122 7.93894 7.32918 7.90329 7.26537C7.86763 7.20157 7.83792 7.10433 7.83495 7.05268C7.83495 6.99799 7.98054 6.1624 8.15881 5.1992C8.33708 4.236 8.4797 3.43991 8.47673 3.43383C8.47376 3.42776 8.16178 3.81668 7.78444 4.2998C7.4071 4.77989 6.62271 5.7917 6.04035 6.54221Z" fill="white"/>
<path d="M6.04035 6.54221L4.97964 7.90953C5.89179 7.93992 6.59299 7.94903 7.13078 7.95207C8.03699 7.95511 8.11127 7.95815 8.22121 8.01588C8.28657 8.0493 8.36679 8.12223 8.39948 8.17692C8.43216 8.23465 8.4589 8.32885 8.4589 8.41089C8.4589 8.48685 8.31925 9.39536 8.14693 10.4315C7.9746 11.4676 7.83792 12.3245 7.84089 12.3366C7.84684 12.3488 8.58072 11.2731 9.47505 9.9514L11.0973 7.54491L11.0565 7.54449C8.2031 7.51453 8.17319 7.51421 8.07265 7.44768C8.01619 7.41122 7.93894 7.32918 7.90329 7.26537C7.86763 7.20157 7.83792 7.10433 7.83495 7.05268C7.83495 6.99799 7.98054 6.1624 8.15881 5.1992C8.33708 4.236 8.4797 3.43991 8.47673 3.43383C8.47376 3.42776 8.16178 3.81668 7.78444 4.2998C7.4071 4.77989 6.62271 5.7917 6.04035 6.54221Z" fill="white"/>
</svg>
