<svg width="33" height="32" viewBox="0 0 33 32" fill="none" xmlns="http://www.w3.org/2000/svg">
<path d="M14.5837 16.2913C14.6879 16.2157 14.865 16.115 14.99 16.0696C15.1097 16.0243 15.24 15.984 15.2712 15.984C15.3233 15.9789 15.3389 16.2157 15.3389 18.0444L15.141 17.9738C15.0368 17.9386 14.865 17.868 14.766 17.8177C14.667 17.7673 14.5264 17.6816 14.4535 17.6313C14.3806 17.5759 14.2972 17.4852 14.2608 17.4247C14.2243 17.3643 14.1983 17.188 14.1931 17.0368C14.1931 16.8454 14.2243 16.7094 14.2972 16.5935C14.3545 16.5079 14.4847 16.3719 14.5837 16.2913Z" fill="#ABABAB"/>
<path d="M16.6931 21.9737L16.6879 20.8201V19.6614L16.9639 19.742C17.115 19.7823 17.365 19.878 17.5212 19.9536C17.6775 20.0241 17.8598 20.145 17.9275 20.2206C17.99 20.3012 18.0733 20.4574 18.1046 20.5732C18.1358 20.6941 18.1463 20.8705 18.1254 20.9662C18.1046 21.0619 18.0577 21.1979 18.0213 21.2684C17.9848 21.339 17.8754 21.4649 17.7817 21.5505C17.6827 21.6311 17.4744 21.747 17.3181 21.8075C17.1619 21.8629 16.9535 21.9233 16.6931 21.9737Z" fill="#ABABAB"/>
<path fill-rule="evenodd" clip-rule="evenodd" d="M11.3514 3.04063C11.3514 3.06094 11.2528 3.13203 11.1387 3.20312C11.0297 3.27422 10.8948 3.41133 10.8481 3.50781C10.8014 3.6043 10.7495 3.82266 10.7392 3.99023C10.7236 4.17305 10.7495 4.45742 10.8066 4.70117C10.8585 4.92461 10.9726 5.29023 11.066 5.51367C11.1594 5.73711 11.3099 6.05703 11.4033 6.22461C11.4967 6.39219 11.6679 6.66641 11.7821 6.83398C11.8962 7.00156 12.1245 7.30117 12.2854 7.49414C12.4514 7.68711 12.7212 7.97656 12.8873 8.12891C13.0585 8.28125 13.3075 8.48945 13.4425 8.58594C13.5774 8.68242 13.6863 8.77891 13.6863 8.8043C13.6863 8.82461 13.5618 8.90078 13.4165 8.97187C13.266 9.04805 13.0118 9.19023 12.8561 9.2918C12.7005 9.39336 12.3476 9.63711 12.0778 9.83516C11.808 10.0332 11.3151 10.4344 10.9882 10.7238C10.6613 11.0133 10.1425 11.5262 9.83632 11.8613C9.53019 12.1965 9.07877 12.7195 8.83491 13.0293C8.58585 13.3391 8.16557 13.9078 7.90094 14.2988C7.63632 14.6898 7.26274 15.284 7.07075 15.6191C6.87877 15.9543 6.62972 16.4215 6.51557 16.6602C6.40141 16.8988 6.21981 17.3 6.11085 17.5488C6.00189 17.7977 5.81509 18.3055 5.69575 18.666C5.57642 19.0266 5.43113 19.5344 5.37406 19.7832C5.32217 20.032 5.23915 20.4688 5.20283 20.748C5.16132 21.0273 5.125 21.5605 5.125 21.9312C5.125 22.368 5.16132 22.7996 5.22358 23.1754C5.28066 23.4852 5.4 23.9523 5.48821 24.2012C5.5816 24.45 5.73208 24.8055 5.83066 24.9883C5.92925 25.1711 6.15755 25.5113 6.33915 25.75C6.52075 25.9887 6.82689 26.3238 7.02406 26.5016C7.22123 26.6793 7.57925 26.9586 7.82311 27.116C8.06698 27.2785 8.45613 27.507 8.69481 27.6238C8.9283 27.7355 9.30189 27.9031 9.525 27.9895C9.74292 28.0758 10.1943 28.223 10.5212 28.3145C10.8481 28.4059 11.4189 28.543 11.7925 28.609C12.166 28.6801 12.8302 28.7766 13.2712 28.8223C13.5499 28.8479 13.8845 28.8817 14.1599 28.9095C14.3203 28.9257 14.4606 28.9399 14.558 28.9492C14.8175 28.9797 15.7047 29 16.5297 29C17.6712 29 18.2316 28.9746 18.9269 28.8984C19.425 28.8426 20.1047 28.7512 20.4316 28.6953C20.7585 28.6344 21.2825 28.5227 21.5991 28.4465C21.9156 28.3652 22.4033 28.2129 22.6887 28.1113C22.9741 28.0098 23.4514 27.7965 23.7524 27.6441C24.0533 27.4918 24.4788 27.2379 24.7071 27.0805C24.9302 26.923 25.2934 26.6082 25.5113 26.3848C25.7292 26.1613 26.0146 25.8313 26.1392 25.6484C26.2637 25.4656 26.466 25.1102 26.5854 24.8613C26.7047 24.6125 26.85 24.2215 26.9071 23.998C26.9642 23.7746 27.0368 23.4242 27.0679 23.2211C27.0991 23.023 27.125 22.5711 27.125 22.2207C27.125 21.8703 27.0887 21.3523 27.0472 21.0629C27.0057 20.7785 26.9226 20.3367 26.8604 20.0879C26.8033 19.8391 26.684 19.4125 26.5958 19.1484C26.5075 18.8844 26.3415 18.4375 26.2325 18.1582C26.1184 17.8789 25.859 17.3203 25.6514 16.9141C25.4439 16.5078 25.1274 15.9391 24.9458 15.6445C24.7642 15.35 24.4632 14.893 24.2764 14.6289C24.0948 14.3648 23.7887 13.9535 23.6019 13.7148C23.4151 13.4762 23.1401 13.1359 22.9844 12.9531C22.8288 12.7703 22.4292 12.3387 22.0972 11.9934C21.7651 11.643 21.241 11.1402 20.9245 10.8711C20.608 10.602 20.2033 10.2668 20.0165 10.1246C19.8297 9.98242 19.425 9.70312 19.1085 9.50508C18.792 9.30703 18.3198 9.03789 18.0604 8.91602C17.7958 8.78906 17.5778 8.67734 17.5778 8.66211C17.5778 8.64687 17.7802 8.42344 18.0241 8.16445C18.2731 7.91055 18.6415 7.44336 18.8491 7.13867C19.0618 6.83398 19.3627 6.32109 19.5184 6.00625C19.6792 5.69648 19.9024 5.16836 20.0165 4.83828C20.1307 4.51328 20.2448 4.08672 20.2656 3.88867C20.2915 3.69063 20.3019 3.47734 20.2915 3.40625C20.2811 3.33516 20.2241 3.23359 20.167 3.17773C20.0736 3.09141 19.9906 3.07617 19.5807 3.08125C19.3108 3.08633 18.8854 3.13711 18.5896 3.19805C18.3042 3.25898 17.6245 3.43164 17.0849 3.57891C16.5453 3.73125 15.8863 3.89375 15.6321 3.93945C15.2274 4.01562 15.1132 4.0207 14.7759 3.96992C14.558 3.93437 14.1014 3.79219 13.7382 3.65C13.3802 3.50781 12.8561 3.30469 12.5708 3.19805C12.1505 3.03555 11.9844 3 11.7042 3C11.5071 3 11.3514 3.01523 11.3514 3.03555V3.04063ZM16.0108 13.3594C16.2191 13.3594 16.3129 13.3896 16.4327 13.4853C16.5212 13.5558 16.6098 13.6969 16.641 13.7976C16.6671 13.9034 16.6931 14.1352 16.6931 14.644L17.1462 14.7548C17.4015 14.8203 17.7556 14.9412 17.9431 15.0319C18.1515 15.1326 18.4171 15.324 18.6254 15.5255C18.865 15.7573 19.0213 15.9588 19.1411 16.2056C19.2348 16.4021 19.3129 16.6489 19.3181 16.7598C19.3181 16.8807 19.2869 17.0217 19.2348 17.1023C19.1827 17.1779 19.089 17.2736 19.0265 17.3139C18.9588 17.3542 18.8025 17.3945 18.6723 17.3945C18.5161 17.3945 18.3963 17.3643 18.3077 17.2988C18.2348 17.2484 18.1515 17.1477 18.115 17.0822C18.083 17.0247 18.0269 16.9051 17.9785 16.8018L17.9767 16.798C17.9706 16.785 17.9646 16.7721 17.9588 16.7598C17.9067 16.6489 17.7921 16.4928 17.7087 16.4071C17.6202 16.3265 17.4483 16.2056 17.3181 16.1502C17.1879 16.0898 16.9952 16.0243 16.6931 15.9789V17.1628C16.6931 18.0645 16.7087 18.3517 16.7608 18.3668C16.7761 18.3717 16.8427 18.3912 16.9367 18.4186L16.9375 18.4188C17.0352 18.4474 17.1623 18.4845 17.2921 18.5229C17.5473 18.5935 17.9223 18.7345 18.1254 18.8252C18.3285 18.9209 18.615 19.1174 18.7765 19.2635C18.9379 19.4146 19.1254 19.6514 19.2036 19.8075C19.2817 19.9587 19.3702 20.2559 19.4067 20.4624C19.4588 20.7596 19.4588 20.9108 19.4067 21.1677C19.3702 21.349 19.2713 21.6362 19.1879 21.8075C19.0942 22.009 18.9275 22.2256 18.74 22.4069C18.5473 22.5832 18.2869 22.7596 18.0213 22.8855C17.7765 23.0014 17.4171 23.1172 16.6931 23.2583V23.621C16.6931 23.8376 16.6619 24.0593 16.615 24.1651C16.5733 24.2608 16.4848 24.3766 16.4223 24.4169C16.3546 24.4572 16.2191 24.5076 16.1202 24.5227C16.0004 24.5429 15.8754 24.5278 15.7556 24.4724C15.6566 24.4321 15.5316 24.3212 15.4743 24.2305C15.4066 24.1197 15.3702 23.9333 15.3545 23.6613C15.3441 23.4396 15.3285 23.2381 15.3181 23.2079C15.3077 23.1777 15.2087 23.1374 15.0993 23.1172C14.99 23.092 14.6775 22.9762 14.417 22.8502C14.0524 22.684 13.8493 22.548 13.6045 22.3112C13.3701 22.0845 13.2139 21.878 13.0576 21.5707C12.9378 21.3339 12.8285 21.0518 12.8128 20.941C12.792 20.7999 12.8076 20.6891 12.8753 20.5682C12.9326 20.4624 13.0524 20.3566 13.1774 20.2962C13.3337 20.2206 13.4326 20.2055 13.5681 20.2357C13.6722 20.2559 13.8233 20.3465 13.9222 20.4423C14.0108 20.538 14.0889 20.6488 14.0889 20.6891C14.0889 20.7294 14.1462 20.8705 14.2139 21.0014C14.2816 21.1375 14.4379 21.3339 14.5629 21.4397C14.6879 21.5505 14.9118 21.6916 15.0525 21.752C15.1983 21.8175 15.3181 21.8629 15.3285 21.8578C15.3337 21.8528 15.3441 21.3138 15.3441 20.6639C15.3441 20.0141 15.3441 19.4499 15.3389 19.4146C15.3389 19.3844 15.1827 19.3088 14.99 19.2534C14.792 19.203 14.4379 19.062 14.1931 18.9461C13.9483 18.8252 13.6358 18.6287 13.5003 18.5028C13.3597 18.3768 13.2035 18.2005 13.1514 18.1199C13.0993 18.0393 13.0212 17.8529 12.9691 17.7169C12.917 17.5607 12.8858 17.3038 12.8858 17.0368C12.8858 16.7346 12.917 16.528 12.9899 16.3316C13.0472 16.1804 13.1931 15.9286 13.3128 15.7724C13.4274 15.6213 13.6462 15.3996 13.7972 15.2837C13.9431 15.1679 14.2399 15.0067 14.4535 14.921C14.667 14.8354 14.9379 14.7498 15.0525 14.7296C15.167 14.7145 15.292 14.6692 15.3285 14.6339C15.365 14.5936 15.3806 14.5029 15.365 14.4022C15.3493 14.3165 15.3493 14.115 15.3702 13.9639C15.3962 13.7422 15.4379 13.6566 15.5733 13.5206C15.7243 13.3795 15.7816 13.3594 16.0108 13.3594Z" fill="#ABABAB"/>
</svg>
