<svg width="42" height="42" viewBox="0 0 42 42" fill="none" xmlns="http://www.w3.org/2000/svg">
<rect x="1" y="1" width="40" height="40" rx="20" stroke="white" stroke-width="2"/>
<path d="M18.4549 8.44253C18.8154 8.31519 19.4121 8.14963 19.7726 8.08596H19.7601C20.1206 8.00955 20.8416 7.98408 21.3513 8.00955C21.8609 8.04776 22.644 8.18784 23.0915 8.32792C23.5391 8.468 24.173 8.74817 24.5211 8.95193C24.8567 9.15568 25.4409 9.58867 25.8139 9.93251C26.1743 10.2763 26.6964 10.9004 26.9575 11.3206C27.231 11.7408 27.5914 12.5304 27.753 13.078C28.0017 13.8548 28.0638 14.326 28.0638 15.3703C28.0638 16.4527 28.0017 16.8348 27.7157 17.688C27.5293 18.2483 27.1191 19.0761 26.8083 19.5345C26.4975 19.993 25.9382 20.617 25.5652 20.9226C25.1923 21.2155 24.5832 21.6358 24.2103 21.8268C23.8374 22.0178 23.191 22.2725 22.7808 22.3871C22.3706 22.5018 21.5626 22.5909 20.9783 22.5909C20.3941 22.5909 19.5861 22.5018 19.1759 22.3871C18.7657 22.2725 18.1193 22.0178 17.7464 21.8268C17.3734 21.6358 16.7519 21.2155 16.379 20.9099C16.0061 20.6043 15.4343 19.9548 15.1111 19.4581C14.8003 18.9742 14.3901 18.1337 14.2161 17.5989C13.9674 16.822 13.8929 16.3508 13.8929 15.4339C13.8929 14.7845 13.9799 13.9058 14.0793 13.4855C14.1912 13.0653 14.4398 12.3776 14.6387 11.9573C14.8376 11.5371 15.2727 10.8749 15.6083 10.4928C15.9315 10.1108 16.5655 9.55046 17.013 9.24483C17.448 8.93919 18.1069 8.58262 18.4549 8.44253Z" fill="white"/>
<path d="M14.9619 24.9978C15.2354 24.9086 15.7699 24.7685 16.1428 24.6794C16.64 24.5648 18.0571 24.5266 21.2394 24.5521C25.0059 24.5775 25.7641 24.6157 26.3981 24.794C26.8083 24.9214 27.6536 25.2779 28.2627 25.5836C28.8718 25.8892 29.7171 26.4113 30.1149 26.7552C30.5251 27.0863 31.1839 27.7612 31.5941 28.2579C31.9919 28.7545 32.5637 29.6587 32.862 30.2954C33.1604 30.9195 33.4463 31.5817 33.4836 31.76C33.5582 32.0401 33.409 32.2311 32.4021 33.2245C31.7681 33.8485 30.7613 34.7017 30.1894 35.0965C29.6052 35.4912 28.5983 36.077 27.9519 36.3954C27.3055 36.7138 26.2987 37.1086 25.7144 37.2741C25.1302 37.4524 24.1482 37.6816 23.5391 37.7962C22.9299 37.9109 21.8112 38 21.0529 38C20.2947 38 19.1759 37.9109 18.5668 37.809C17.9577 37.7071 16.9384 37.4779 16.3293 37.2996C15.7202 37.1086 14.676 36.7138 14.0296 36.3954C13.3832 36.077 12.3763 35.4912 11.7921 35.0965C11.2078 34.7017 10.2258 33.8357 9.59186 33.1862C8.64713 32.2311 8.44824 31.9637 8.51039 31.7217C8.54768 31.5689 8.82116 30.9195 9.11949 30.2954C9.41783 29.6587 9.98964 28.7545 10.3874 28.2579C10.7976 27.774 11.4565 27.0863 11.8667 26.7552C12.2644 26.4241 13.0227 25.9274 13.5324 25.66C14.042 25.3926 14.6884 25.0997 14.9619 24.9978Z" fill="white"/>
</svg>
