<svg width="32" height="32" viewBox="0 0 32 32" fill="none" xmlns="http://www.w3.org/2000/svg">
<g id="32x32">
<g id="Vector">
<path d="M13.2233 6.36261C13.5318 6.27559 14.0961 6.1668 14.4648 6.10878C14.8335 6.05077 15.4956 6.00725 15.932 6C16.3684 6 17.0607 6.04351 17.4745 6.10153C17.8883 6.15955 18.4827 6.27559 18.7912 6.36261C19.0997 6.44239 19.6415 6.62369 19.9951 6.76874C20.3488 6.91378 20.898 7.18212 21.2216 7.36342C21.5451 7.54473 21.9815 7.82032 22.1847 7.97261C22.3878 8.11766 22.5609 8.24095 22.5759 8.24095C22.5835 8.24095 22.5684 8.10315 22.5383 7.9291C22.5082 7.7623 22.4857 7.47946 22.4781 7.29815C22.4781 7.07333 22.5233 6.89203 22.6437 6.72523C22.7415 6.58743 22.8995 6.41338 23.0048 6.34086C23.1102 6.26108 23.3585 6.18131 23.5691 6.1668C23.8701 6.13779 24.0056 6.1668 24.2388 6.29734C24.4043 6.39162 24.6 6.56568 24.6752 6.68171C24.7655 6.83401 24.9461 7.75504 25.2621 9.7059C25.6233 11.9541 25.6985 12.5778 25.6458 12.7881C25.6007 12.9404 25.5104 13.1435 25.4276 13.245C25.3524 13.3465 25.1492 13.4843 24.9762 13.5496C24.6827 13.6729 24.5849 13.6729 23.5165 13.5714C22.8844 13.5061 21.673 13.39 20.8228 13.3103C19.7318 13.2087 19.2201 13.129 19.0621 13.0419C18.9417 12.9767 18.7762 12.8244 18.6859 12.7156C18.5655 12.556 18.5279 12.4037 18.5279 12.0484C18.5279 11.693 18.5655 11.5407 18.6859 11.3812C18.7762 11.2724 18.9568 11.1128 19.0997 11.0403C19.2878 10.9315 19.4835 10.9025 19.8446 10.9098C20.1155 10.917 20.3939 10.9388 20.4692 10.9605C20.5369 10.9823 20.5971 10.975 20.5971 10.9388C20.5971 10.9098 20.4014 10.7502 20.1607 10.5907C19.9274 10.4239 19.5437 10.1918 19.3179 10.0685C19.0922 9.94523 18.5956 9.74941 18.2269 9.62613C17.8432 9.50284 17.2111 9.36505 16.7597 9.31428C16.1427 9.24901 15.8116 9.24901 15.2172 9.31428C14.8034 9.36505 14.1563 9.50284 13.7876 9.62613C13.4189 9.74941 12.9073 9.95248 12.659 10.083C12.4107 10.2208 11.9442 10.5254 11.6281 10.772C11.3046 11.0113 10.8306 11.4682 10.5747 11.7873C10.3114 12.0991 9.95776 12.6286 9.79223 12.9622C9.61917 13.2958 9.42354 13.7454 9.35582 13.9485C9.2881 14.1588 9.19781 14.3328 9.16019 14.3328C9.12257 14.3328 8.52063 14.1805 7.8284 13.9992C7.12864 13.8107 6.43641 13.6366 6.28592 13.6004C6.12791 13.5641 6 13.4916 6 13.4481C6 13.3973 6.08277 13.0927 6.19563 12.7736C6.30849 12.4545 6.54927 11.9033 6.73738 11.5407C6.91796 11.1781 7.21141 10.6922 7.37694 10.4529C7.54247 10.2136 7.89611 9.77117 8.15194 9.47383C8.41529 9.17649 8.8216 8.76311 9.06237 8.56005C9.30315 8.35698 9.70194 8.05239 9.95024 7.88559C10.1985 7.71153 10.6199 7.45045 10.8908 7.29815C11.1616 7.14586 11.6658 6.90653 12.0194 6.76874C12.373 6.62369 12.9148 6.44239 13.2233 6.36261Z" fill="white"/>
<path d="M22.2223 19.0395C22.3954 18.7059 22.591 18.2563 22.6587 18.0532C22.734 17.8429 22.8167 17.6689 22.8619 17.6689C22.8995 17.6689 23.4939 17.8212 24.1937 18.0025C24.8859 18.191 25.5706 18.3723 25.7136 18.4086C25.864 18.4521 25.992 18.5246 25.9995 18.5682C26.007 18.6117 25.9318 18.909 25.8189 19.2281C25.706 19.5472 25.4653 20.1056 25.2772 20.461C25.0966 20.8164 24.8031 21.3095 24.6376 21.5488C24.4721 21.7882 24.1034 22.245 23.825 22.5641C23.5466 22.8832 23.0876 23.3329 22.8017 23.565C22.5233 23.7898 22.0342 24.1451 21.7257 24.3409C21.4172 24.544 20.8905 24.8341 20.5594 24.9864C20.2284 25.1387 19.7017 25.3563 19.3932 25.4578C19.0847 25.5666 18.4903 25.7189 18.0764 25.7986C17.6626 25.8857 16.9327 25.9655 16.4587 25.9872C15.9471 26.0162 15.2849 25.9945 14.841 25.9364C14.4272 25.8929 13.765 25.7696 13.3738 25.6754C12.9825 25.5738 12.373 25.378 12.0194 25.233C11.6658 25.0879 11.1165 24.8196 10.793 24.6383C10.4694 24.457 10.033 24.1814 9.82985 24.0364C9.62669 23.8841 9.45363 23.7608 9.44611 23.7608C9.43106 23.7608 9.44611 23.8986 9.47621 24.0726C9.5063 24.2394 9.52888 24.5223 9.5364 24.7036C9.5364 24.9284 9.49126 25.1097 9.37087 25.2765C9.27305 25.4143 9.11504 25.5883 9.0097 25.6609C8.90436 25.7406 8.65606 25.8204 8.44538 25.8349C8.14441 25.8639 8.00898 25.8349 7.77573 25.7044C7.61019 25.6101 7.41456 25.436 7.33932 25.32C7.24903 25.1677 7.06844 24.2467 6.75243 22.2958C6.39126 20.0476 6.31602 19.4239 6.36869 19.2136C6.41383 19.0613 6.50413 18.8582 6.58689 18.7567C6.66213 18.6552 6.86529 18.5174 7.03835 18.4521C7.33179 18.3288 7.42961 18.3288 8.50558 18.4304C9.13009 18.4956 10.3415 18.6117 11.1917 18.6914C12.2828 18.793 12.7944 18.8727 12.9524 18.9598C13.0728 19.025 13.2383 19.1773 13.3286 19.2861C13.449 19.4457 13.4866 19.598 13.4866 19.9533C13.4866 20.3087 13.449 20.461 13.3286 20.6205C13.2383 20.7293 13.0578 20.8889 12.9148 20.9614C12.7267 21.0702 12.5311 21.0992 12.1699 21.0919C11.899 21.0847 11.6206 21.0629 11.5529 21.0412C11.4777 21.0194 11.4175 21.0267 11.4175 21.0629C11.4175 21.0919 11.6131 21.2515 11.8539 21.411C12.0871 21.5778 12.4709 21.8099 12.6966 21.9332C12.9223 22.0565 13.4189 22.2523 13.7876 22.3756C14.1563 22.4989 14.8034 22.6367 15.2172 22.6874C15.8116 22.7527 16.1427 22.7527 16.7597 22.6874C17.2111 22.6367 17.8357 22.4989 18.2269 22.3756C18.5956 22.2523 19.1073 22.0492 19.3556 21.9187C19.6039 21.7809 20.0704 21.4763 20.3939 21.2297C20.7099 20.9904 21.184 20.5335 21.4473 20.2144C21.7031 19.9026 22.0568 19.3732 22.2223 19.0395Z" fill="white"/>
</g>
</g>
</svg>
