<svg width="107" height="107" viewBox="0 0 107 107" fill="none" xmlns="http://www.w3.org/2000/svg">
<g opacity="0.5">
<rect x="3.06186" y="24.3664" width="82.3144" height="82.3144" rx="41.1572" transform="rotate(-15 3.06186 24.3664)" fill="#2B4F22"/>
<rect x="3.06186" y="24.3664" width="82.3144" height="82.3144" rx="41.1572" transform="rotate(-15 3.06186 24.3664)" stroke="#43E719" stroke-width="5"/>
<path d="M67.2505 29.3377C67.429 29.037 67.904 28.5304 68.3423 28.2323C68.8061 27.8913 69.3316 27.6421 69.6604 27.6262C69.9457 27.5859 70.5698 27.6355 71.0121 27.6976C71.5152 27.7795 72.1288 28.0667 72.5571 28.4216C72.9808 28.7597 73.3978 29.2802 73.5716 29.7213C73.7626 30.1579 73.847 30.7494 73.8173 31.1909C73.7785 31.5987 70.3115 41.8667 66.1121 54.0289C61.9126 66.1912 58.3449 76.3597 58.2137 76.6297C58.0652 76.9043 57.5902 77.4109 57.1827 77.755C56.7579 78.1036 56.255 78.437 56.0306 78.4972C55.8234 78.5527 55.1866 78.5246 54.6317 78.4566C53.7208 78.3032 52.4701 77.5726 41.587 70.662C34.9639 66.4575 29.3292 62.7649 29.0835 62.4695C28.816 62.1618 28.5243 61.6258 28.434 61.2887C28.3391 60.9348 28.3065 60.3294 28.3715 59.9507C28.4148 59.5597 28.6074 58.9662 28.7987 58.644C28.9855 58.3049 29.2968 57.8783 29.5069 57.6956C29.7171 57.5128 30.1472 57.253 30.4572 57.0977C30.8017 56.9331 31.4241 56.8386 32.0001 56.8469C32.8358 56.8578 33.2053 56.9936 34.583 57.8528C35.4723 58.4093 39.9719 61.2499 44.5721 64.1901C49.1769 67.147 53.0086 69.4983 53.1077 69.4537C53.2068 69.409 56.351 60.492 60.106 49.6411C63.861 38.7901 67.0765 29.6553 67.2505 29.3377Z" fill="#43E719"/>
</g>
</svg>
