<svg width="32" height="32" viewBox="0 0 32 32" fill="none" xmlns="http://www.w3.org/2000/svg">
<path d="M22.482 7.28431C22.482 6.89216 22.529 6.80392 22.9042 6.42157C23.2326 6.09804 23.4015 6 23.636 6C23.7955 6 24.0582 6.09804 24.2177 6.21569C24.3772 6.32353 24.668 6.64706 24.8838 6.92157C25.0996 7.19608 25.4936 7.77451 25.7563 8.20588C26.0283 8.63725 26.4318 9.38235 26.6475 9.87255C26.8727 10.3627 27.1635 11.1078 27.2949 11.5392C27.4356 11.9706 27.6045 12.6373 27.6795 13.0098C27.7546 13.3824 27.8672 13.9608 27.9235 14.2843C27.9891 14.6569 28.0173 15.4412 27.9891 16.3922C27.961 17.2255 27.8859 18.2451 27.8109 18.6471C27.7264 19.049 27.5482 19.8039 27.4075 20.3137C27.2667 20.8235 26.9478 21.7059 26.6945 22.2745C26.4318 22.8431 26.094 23.5196 25.9345 23.7941C25.7657 24.0588 25.3998 24.6078 25.1183 25C24.8275 25.402 24.4991 25.7843 24.3865 25.8627C24.2646 25.9412 24.0582 26 23.9175 26C23.7673 26 23.4953 25.8922 23.3076 25.7549C23.1106 25.6176 22.8855 25.3824 22.8104 25.2157C22.7354 25.049 22.6697 24.8039 22.6697 24.6471C22.6697 24.5 22.7823 24.1961 22.923 23.9706C23.0731 23.7549 23.3639 23.3137 23.5703 22.9902C23.7861 22.6765 24.1332 22.0686 24.3396 21.6373C24.5554 21.2059 24.8369 20.5196 24.9682 20.1176C25.0996 19.7157 25.2684 19.098 25.3529 18.7451C25.4279 18.3922 25.5217 17.6471 25.5686 17.0784C25.6062 16.5098 25.6062 15.6078 25.5593 15.0686C25.5217 14.5294 25.3998 13.7157 25.2872 13.2549C25.184 12.7941 24.9588 12.0686 24.7993 11.6373C24.6305 11.2059 24.3302 10.5392 24.1239 10.1667C23.9268 9.79412 23.4671 9.08824 23.12 8.59804C22.5477 7.81373 22.482 7.66667 22.482 7.28431Z" fill="white"/>
<path d="M11.2896 10.1078C12.9877 8.63726 14.4513 7.41176 14.5545 7.36275C14.6577 7.32353 14.8172 7.28431 14.911 7.28431C14.9954 7.27451 15.2112 7.34314 15.3801 7.42157C15.5396 7.5 15.7553 7.69608 15.8491 7.86275C15.9993 8.13725 16.0086 8.71569 16.0086 16.098C16.0086 22.9608 15.9899 24.0784 15.8679 24.3333C15.7929 24.5 15.6334 24.6961 15.5208 24.7745C15.3988 24.8529 15.1268 24.9216 14.911 24.9216C14.5638 24.9216 14.4137 24.8431 13.8321 24.3431C13.4568 24.0294 12.0495 22.8235 8.2687 19.5294H6.60813C5.21025 19.5294 4.88188 19.5 4.60043 19.3529C4.40342 19.2549 4.21578 19.0588 4.13134 18.8627C4.02815 18.6176 4 18.0294 4 16.1471C4 14.3725 4.02815 13.6667 4.12196 13.4216C4.19702 13.2549 4.36589 13.0294 4.49723 12.9314C4.71301 12.7843 4.99447 12.7647 8.22179 12.7647L11.2896 10.1078Z" fill="white"/>
<path d="M18.9076 10.5686C19.0108 10.4216 19.236 10.2059 19.4048 10.1078C19.5737 10.0098 19.7801 9.92157 19.8552 9.92157C19.9302 9.92157 20.146 9.97059 20.3242 10.0392C20.5494 10.1275 20.7746 10.3431 21.0654 10.7549C21.2812 11.0784 21.6471 11.7353 21.8722 12.2255C22.0974 12.7059 22.3788 13.5 22.4914 13.9902C22.6603 14.6863 22.7072 15.1373 22.6978 16.1471C22.6978 17.098 22.6509 17.6176 22.5008 18.2059C22.3976 18.6373 22.2006 19.2745 22.0692 19.6275C21.9285 19.9804 21.6283 20.5882 21.4031 20.9706C21.1686 21.3627 20.8684 21.7647 20.7277 21.8529C20.5776 21.9412 20.3149 22.0196 20.1366 22.0196C19.9584 22.0196 19.6675 21.9216 19.508 21.8039C19.3392 21.6863 19.1328 21.451 19.0577 21.2941C18.9827 21.1275 18.917 20.8824 18.917 20.7255C18.917 20.5784 19.0859 20.1471 19.3016 19.7745C19.508 19.3922 19.752 18.9314 19.827 18.7451C19.9021 18.5588 20.0522 18.0882 20.146 17.7157C20.2492 17.3137 20.3242 16.6961 20.3242 16.2157C20.3242 15.7745 20.2586 15.0882 20.1741 14.6961C20.0897 14.3137 19.9114 13.7451 19.7895 13.451C19.6675 13.1569 19.3767 12.6275 19.1515 12.2745C18.8419 11.7941 18.7387 11.5392 18.7293 11.2451C18.7293 11 18.795 10.7451 18.9076 10.5686Z" fill="white"/>
<path d="M29 27.5L3 4.5" stroke="white" stroke-width="2.5" stroke-linecap="round"/>
</svg>
