<svg width="33" height="33" viewBox="0 0 33 33" fill="none" xmlns="http://www.w3.org/2000/svg">
<path d="M16.0838 6.68148C16.1367 6.62593 16.2143 6.56667 16.2531 6.54445C16.2919 6.52222 16.3907 6.5 16.4753 6.5C16.5564 6.5 16.6658 6.51852 16.7222 6.54074C16.7751 6.55926 16.8598 6.62222 16.9162 6.67778C16.9691 6.73334 17.0891 6.96667 17.1843 7.20371C17.2795 7.43705 17.4594 7.88891 17.5864 8.20373C17.7134 8.51855 18.0944 9.47041 18.433 10.3149C18.7716 11.1593 19.1349 12.0593 19.2372 12.3149C19.3501 12.5927 19.4665 12.8223 19.53 12.8927C19.5899 12.9556 19.7028 13.026 19.7804 13.0519C19.858 13.0742 20.7328 13.1668 21.7205 13.2593C22.7081 13.3519 24.0591 13.4779 24.7187 13.5371C25.3783 13.6001 25.9744 13.6631 26.0414 13.6853C26.1085 13.7038 26.2108 13.7557 26.2672 13.8038C26.3236 13.8519 26.4012 13.9557 26.4365 14.0371C26.4683 14.1186 26.5 14.2371 26.5 14.2964C26.5 14.3557 26.4647 14.4779 26.4224 14.5631C26.366 14.6742 26.1261 14.9075 25.6182 15.3594C25.2196 15.7149 24.1825 16.6372 23.3078 17.415C22.4365 18.189 21.6711 18.8779 21.6146 18.9446C21.5265 19.0409 21.5053 19.0965 21.4982 19.2705C21.4877 19.4335 21.5547 19.7817 21.791 20.8335C21.9568 21.578 22.1649 22.4928 22.2496 22.8706C22.3342 23.2484 22.5176 24.0632 22.6552 24.6854C22.821 25.4188 22.9056 25.8669 22.8951 25.9632C22.888 26.0447 22.8422 26.1706 22.7928 26.241C22.7434 26.3114 22.6411 26.4003 22.5635 26.441C22.4647 26.4892 22.3765 26.504 22.2496 26.4929C22.1014 26.478 21.9815 26.4151 21.4735 26.0854C21.142 25.8706 20.3201 25.3336 19.6393 24.8891C18.9621 24.4447 18.0309 23.841 17.5758 23.5447C17.1208 23.2484 16.6905 22.9891 16.6235 22.9706C16.5494 22.9521 16.4506 22.9521 16.3765 22.9706C16.3095 22.9891 16.0379 23.1447 15.7769 23.315C15.5159 23.4854 14.881 23.8965 14.366 24.2336C13.851 24.5669 13.2725 24.9484 13.0785 25.0743C12.8845 25.2002 12.3589 25.5447 11.9145 25.8336C11.47 26.1262 11.0397 26.3966 10.9621 26.4373C10.8563 26.4929 10.7751 26.5077 10.6446 26.4966C10.5423 26.4855 10.4189 26.4447 10.3554 26.3966C10.2919 26.3521 10.2072 26.2484 10.1684 26.1669C10.1296 26.0854 10.0979 25.9669 10.0979 25.9077C10.0979 25.8484 10.2072 25.3002 10.3448 24.6928C10.4788 24.0891 10.6693 23.2336 10.7646 22.7965C10.8986 22.2002 10.9762 21.9298 11.075 21.7224C11.1667 21.5372 11.2831 21.3669 11.4383 21.2039C11.6393 20.9928 11.9638 20.778 14.0273 19.4817C15.7557 18.3965 16.4048 17.9705 16.4541 17.889C16.5071 17.8039 16.5176 17.7298 16.5071 17.5742C16.4929 17.3964 16.4753 17.3557 16.3624 17.2483C16.2531 17.1483 16.2108 17.1298 16.052 17.1298C15.9497 17.1298 15.6287 17.1557 15.336 17.1853C15.0467 17.215 13.9427 17.3224 12.8845 17.4261C11.8263 17.5261 10.8245 17.6113 10.6552 17.6113C10.4224 17.6113 10.2743 17.589 10.0732 17.5187C9.92152 17.4705 9.71693 17.3742 9.61817 17.3076C9.51587 17.2409 8.94797 16.752 8.35185 16.2224C7.7522 15.6927 7.12081 15.1297 6.94444 14.9742C6.74339 14.7964 6.59877 14.6334 6.56349 14.5483C6.52822 14.4705 6.50353 14.3557 6.5 14.2964C6.5 14.2371 6.53175 14.1186 6.56349 14.0371C6.59877 13.9557 6.67637 13.8519 6.7328 13.8038C6.78924 13.7557 6.89153 13.7038 6.95855 13.6816C7.02557 13.6631 8.07319 13.5556 9.2866 13.4445C10.5 13.3297 11.858 13.2038 12.3025 13.1631C12.7469 13.1223 13.1808 13.063 13.2654 13.0334C13.3501 13.0038 13.4524 12.9297 13.5053 12.8593C13.5547 12.7964 13.6781 12.5334 13.7804 12.2779C13.8827 12.0223 14.1296 11.4075 14.3272 10.9075L14.3284 10.9044C14.5296 10.4041 14.8637 9.57307 15.0714 9.05559C15.2795 8.53706 15.5723 7.81113 15.7169 7.44446C15.8933 7.01112 16.0203 6.74445 16.0838 6.68148Z" fill="white"/>
</svg>
