<svg width="129" height="128" viewBox="0 0 129 128" fill="none" xmlns="http://www.w3.org/2000/svg">
<rect x="0.5" width="128" height="128" rx="64" fill="url(#paint0_linear_398_3628)"/>
<path d="M20.6871 58.8428C44.8462 49.3879 60.9561 43.1544 69.0165 40.1427C92.0313 31.5436 96.8139 30.0499 99.9305 30.0005C100.616 29.9897 102.149 30.1423 103.142 30.8661C103.981 31.4772 104.211 32.3027 104.322 32.8821C104.431 33.4615 104.569 34.7814 104.46 35.8128C103.213 47.5842 97.8165 76.1506 95.0706 89.3346C93.9087 94.9132 91.6218 96.7842 89.4069 96.9668C84.5946 97.3646 80.9397 94.1101 76.2786 91.3656C68.985 87.07 64.8648 84.3967 57.7845 80.2058C49.6024 75.3617 54.9063 72.7001 59.5692 68.3493C60.7896 67.2103 81.9945 49.8852 82.4049 48.3135C82.4562 48.1169 82.5039 47.3842 82.0188 46.9973C81.5346 46.6104 80.8191 46.7427 80.3034 46.8479C79.5717 46.9971 67.9194 53.9158 45.3468 67.6031C42.0394 69.6432 39.0437 70.6374 36.3596 70.5854C33.4006 70.5276 27.7088 69.0821 23.4774 67.8468C18.2875 66.3309 14.1626 65.5303 14.5218 62.9558C14.7089 61.6158 16.764 60.2448 20.6871 58.8428Z" fill="white"/>
<defs>
<linearGradient id="paint0_linear_398_3628" x1="125.723" y1="-4.34489e-07" x2="6.69674" y2="125.811" gradientUnits="userSpaceOnUse">
<stop stop-color="#FC7FEB"/>
<stop offset="0.4" stop-color="#A25CBE"/>
<stop offset="0.704585" stop-color="#5F74CF"/>
<stop offset="1" stop-color="#5978DF"/>
</linearGradient>
</defs>
</svg>
