<svg width="17" height="16" viewBox="0 0 17 16" fill="none" xmlns="http://www.w3.org/2000/svg">
<g id="16x16">
<g id="Vector">
<path d="M2.96736 12.9996C2.85717 13.0048 2.69802 12.9627 2.6368 12.9049C2.56335 12.8523 2.50213 12.5104 2.50213 12.1474C2.48989 11.5898 2.52662 11.4741 2.71026 11.3794C2.83269 11.3163 4.14266 10.9008 5.62403 10.4589C7.1054 10.017 8.40312 9.6541 8.50107 9.6541C8.59901 9.6541 9.93346 10.0223 11.4638 10.4799C13.0064 10.9323 14.3041 11.3531 14.3776 11.411C14.451 11.4689 14.5 11.8108 14.5 12.1737C14.5 12.6892 14.4633 12.847 14.3164 12.9101C14.2184 12.9522 14.0593 12.989 13.9858 12.989C13.9001 12.989 12.6758 12.6419 11.2557 12.2158C9.83552 11.795 8.62349 11.4373 8.56228 11.4268C8.50107 11.4162 7.25231 11.7634 5.80767 12.2C4.36303 12.6366 3.07754 12.9943 2.96736 12.9996Z" fill="currentColor"/>
<path d="M2.96736 9.6804C2.85717 9.68566 2.69802 9.64884 2.6368 9.59098C2.56335 9.53837 2.50213 9.18594 2.50213 8.80721C2.50213 8.16021 2.51438 8.11813 2.77147 8.01293C2.93063 7.94981 4.20387 7.5553 5.62403 7.13448C7.04418 6.71367 8.29294 6.35598 8.41537 6.3402C8.55004 6.31916 9.46824 6.56113 11.2802 7.10292C12.7493 7.53952 14.0715 7.94981 14.2307 8.01293C14.4878 8.11813 14.5 8.16021 14.5 8.81773C14.5 9.37005 14.4633 9.53311 14.3164 9.59623C14.2184 9.63832 14.1082 9.67514 14.0715 9.67514C14.0348 9.67514 13.9123 9.6541 13.7899 9.6278C13.6797 9.6015 12.4677 9.24907 11.1088 8.83877C9.73758 8.43374 8.56228 8.09709 8.50107 8.09709C8.43985 8.09709 7.20334 8.44952 5.77094 8.88611C4.35078 9.31745 3.07754 9.67514 2.96736 9.6804Z" fill="currentColor"/>
<path d="M3.35912 6.27182C3.07754 6.35072 3.02857 6.35072 2.78372 6.27708C2.51438 6.20344 2.50213 6.16662 2.50213 5.50384C2.50213 5.11984 2.5511 4.78319 2.60007 4.75163C2.64905 4.72007 3.95902 4.31504 5.5016 3.84689C7.05642 3.37873 8.40312 3 8.50107 3C8.59901 3 9.92122 3.36821 11.4393 3.82058C12.9574 4.2677 14.2674 4.67799 14.3531 4.72533C14.451 4.78319 14.5 5.0199 14.5 5.47753C14.5 6.08245 14.4755 6.16135 14.2551 6.25604C14.0225 6.35598 13.998 6.35598 13.6797 6.27182C13.4839 6.22448 12.2473 5.85627 8.50107 4.73059L6.08925 5.45649C4.75479 5.85627 3.53052 6.22448 3.35912 6.27182Z" fill="currentColor"/>
</g>
</g>
</svg>
