<svg width="32" height="32" viewBox="0 0 32 32" fill="none" xmlns="http://www.w3.org/2000/svg">
<g id="32x32" clip-path="url(#clip0_271_1120)">
<path id="Vector" fill-rule="evenodd" clip-rule="evenodd" d="M17.1518 3.07809L21.526 5.34801C25.0024 7.15713 25.9314 7.65969 26.0717 7.7966C26.1674 7.89745 26.3092 8.09257 26.3923 8.23795C26.4712 8.38117 26.5624 8.63293 26.5897 8.79397C26.6186 8.96221 26.6306 9.22383 26.6167 9.38262C26.6003 9.54643 26.5414 9.82224 26.4801 10.001C26.4036 10.2294 25.0409 12.8784 21.833 19.0427C18.6252 25.207 17.2375 27.843 17.0944 28.0367C16.9831 28.1895 16.791 28.396 16.6689 28.4984C16.5442 28.6059 16.3231 28.7462 16.1713 28.8141C16.0212 28.8891 15.7517 28.9596 15.574 28.9757C15.3896 28.9946 15.1276 28.9796 14.9844 28.9497C14.7969 28.9032 13.5593 28.272 5.95756 24.2841L5.7705 24.0336C5.66971 23.8917 5.53736 23.6377 5.48508 23.4636C5.42602 23.2925 5.38439 22.9963 5.38788 22.8066C5.39138 22.6168 5.4153 22.3675 5.43583 22.2569C5.46895 22.1018 6.55296 19.9781 10.0924 13.1563C13.4958 6.59587 14.7617 4.18372 14.9142 3.98217C15.0254 3.82939 15.2176 3.62291 15.3423 3.51543C15.4644 3.41297 15.6584 3.28411 15.7721 3.22835C15.879 3.17544 16.0922 3.10125 16.2298 3.0707C16.3715 3.04232 16.6383 3.02791 16.8195 3.04562L17.1518 3.07809ZM16.0644 4.56795C15.9011 4.66814 15.8959 4.67819 12.2875 11.5917L8.66977 18.5131L18.1623 23.453C25.3468 9.5964 25.352 9.58635 25.3445 9.39733C25.3338 9.29597 25.2846 9.1363 25.2332 9.05209C25.1444 8.89735 24.8473 8.73633 20.8671 6.66505C16.8869 4.59377 16.5887 4.44496 16.411 4.46104C16.3084 4.46508 16.1494 4.51642 16.0644 4.56795ZM7.32384 21.1198C6.74548 22.2617 6.66385 22.4491 6.66617 22.5971C6.66442 22.692 6.6954 22.8358 6.73171 22.9185C6.79813 23.0552 7.08695 23.2119 11.1051 25.3221C15.1425 27.4359 15.4199 27.5739 15.5991 27.565C15.7002 27.5538 15.8566 27.5075 15.9484 27.4531C16.0981 27.3586 16.1441 27.2804 16.7945 26.0611L17.4826 24.7592L7.98587 19.8171L7.32384 21.1198ZM10.1203 6.25018C10.1702 6.27618 10.2628 6.36265 10.321 6.44401C10.3765 6.53039 10.4257 6.69006 10.4245 6.80432C10.4232 6.91858 10.377 7.09884 10.3195 7.20937C10.2452 7.36225 10.157 7.45042 9.9896 7.54845C9.86131 7.62214 9.57654 7.79317 9.36062 7.92341C9.14209 8.05867 8.78422 8.31935 8.56403 8.49844C8.3454 8.68473 7.9973 9.00795 7.79842 9.21729C7.59276 9.42948 7.27478 9.80668 7.08103 10.057C6.8131 10.4092 6.63542 10.6998 6.32276 11.2904C6.03256 11.8481 5.87037 12.2106 5.75717 12.5603C5.66809 12.8331 5.54269 13.2978 5.47335 13.5937C5.40557 13.8968 5.32867 14.3292 5.30427 14.5591C5.27308 14.7919 5.25303 15.1964 5.25825 15.4609C5.25669 15.7282 5.28254 16.1056 5.30664 16.3033C5.33074 16.501 5.32299 16.7395 5.28842 16.8365C5.25172 16.9578 5.17494 17.0647 5.05022 17.1722C4.95369 17.256 4.7915 17.344 4.69768 17.3718C4.58459 17.3959 4.46637 17.3791 4.35396 17.3206C4.26081 17.2657 4.15111 17.1512 4.11064 17.0663C4.07279 16.9764 4.0239 16.6636 3.99999 16.3639C3.98025 16.0663 3.96864 15.6006 3.97698 15.3304C3.98948 15.0624 4.02735 14.6033 4.06957 14.3188C4.10763 14.0321 4.20234 13.5451 4.27429 13.2442C4.34885 12.9383 4.51976 12.376 4.65804 11.9883C4.86807 11.4017 4.97322 11.1691 5.31929 10.5448C5.58015 10.074 5.86492 9.62844 6.09838 9.32217C6.29736 9.06181 6.66443 8.62078 6.91918 8.34475C7.17132 8.07375 7.60085 7.66522 7.87322 7.43667C8.14298 7.21314 8.55042 6.90804 8.7768 6.7577C8.99641 6.61022 9.32184 6.42205 9.48557 6.34126C9.65608 6.25761 9.84896 6.19199 9.90938 6.19789C9.97241 6.19877 10.0661 6.22201 10.1203 6.25018ZM27.4196 15.2719C27.5034 15.3346 27.5954 15.4527 27.6275 15.5333C27.6596 15.6138 27.7064 15.951 27.7323 16.2773C27.7614 16.6181 27.7488 17.2116 27.7093 17.6636C27.6668 18.1011 27.587 18.6916 27.5297 18.9746C27.4698 19.2627 27.3244 19.8063 27.2091 20.1804C27.0173 20.7829 26.9346 20.9825 26.511 21.7963C26.0849 22.6152 25.9689 22.7974 25.5882 23.2952C25.3453 23.6094 24.9835 24.0403 24.7846 24.2497C24.5831 24.464 24.199 24.826 23.9375 25.0538C23.6693 25.2846 23.2608 25.6019 23.025 25.7601C22.7851 25.9161 22.4451 26.1222 22.261 26.2116C22.031 26.3282 21.8799 26.3644 21.7533 26.3433C21.6528 26.3229 21.5363 26.2622 21.4884 26.2118C21.4406 26.1614 21.3767 26.0706 21.3424 26.0145C21.3066 25.9512 21.2829 25.8239 21.294 25.7212C21.3025 25.6235 21.3571 25.4475 21.4146 25.337C21.4982 25.1762 21.5854 25.1003 21.8597 24.9493C22.0474 24.8427 22.3578 24.6531 22.5476 24.5221C22.7391 24.3982 23.0443 24.1676 23.2295 24.015C23.4079 23.8653 23.7169 23.5664 23.9184 23.352C24.1173 23.1427 24.4379 22.7605 24.6358 22.5123C24.9251 22.1394 25.0673 21.9069 25.4202 21.2287C25.747 20.6007 25.8951 20.2755 26.0261 19.8713C26.1215 19.5761 26.2412 19.1021 26.3011 18.8141C26.3543 18.5289 26.4202 18.0972 26.4415 17.8529C26.4628 17.6086 26.4792 17.2213 26.4734 16.9884C26.4691 16.7628 26.4541 16.4358 26.4321 16.2647C26.4116 16.1008 26.4141 15.8722 26.4414 15.7588C26.4797 15.5936 26.522 15.5326 26.6708 15.3993C26.7741 15.3126 26.9472 15.2239 27.0603 15.1998C27.2239 15.17 27.301 15.1846 27.4196 15.2719ZM10.665 8.76182C10.74 8.80082 10.8382 8.89665 10.8839 8.97151C10.9312 9.05355 10.9679 9.20672 10.9666 9.32098C10.9653 9.43525 10.927 9.60044 10.8799 9.69087C10.8329 9.7813 10.7493 9.89104 10.6862 9.94118C10.6298 9.98847 10.4614 10.0987 10.3195 10.1781C10.175 10.2625 9.89125 10.4724 9.69294 10.6501C9.49048 10.8257 9.18199 11.1439 9.0076 11.3469C8.7481 11.6524 8.62426 11.8497 8.34975 12.3772C8.07785 12.8997 7.98208 13.1243 7.88341 13.5071C7.81049 13.7693 7.7336 14.2017 7.70184 14.4661C7.67423 14.7326 7.66464 15.1171 7.68196 15.3176C7.69251 15.521 7.68999 15.7495 7.66849 15.8214C7.64438 15.8982 7.56546 16.0295 7.49497 16.1141C7.4177 16.2016 7.27634 16.3004 7.17312 16.3361C7.07407 16.3739 6.92661 16.3929 6.84537 16.3762C6.76152 16.3645 6.64601 16.2916 6.57427 16.216C6.48277 16.1173 6.43252 15.9698 6.40232 15.6924C6.3819 15.4774 6.37058 15.1332 6.37775 14.9262C6.38908 14.7214 6.43828 14.332 6.49038 14.0591C6.53987 13.7912 6.64019 13.3645 6.70942 13.1197C6.77866 12.8748 6.96032 12.4139 7.11098 12.0837C7.28673 11.7154 7.48852 11.348 7.66301 11.0941C7.81241 10.8781 8.08034 10.526 8.2615 10.3202C8.43589 10.1172 8.78088 9.77964 9.02353 9.56754C9.2594 9.35829 9.61572 9.09043 9.81547 8.97093C10.0111 8.84926 10.2494 8.73704 10.3463 8.72363C10.4458 8.7052 10.5901 8.72282 10.665 8.76182ZM24.9954 16.2193C25.0745 16.2605 25.18 16.3728 25.2262 16.4671C25.2724 16.5614 25.3214 16.8231 25.334 17.0531C25.3533 17.2802 25.3463 17.6597 25.3303 17.8939C25.3074 18.131 25.241 18.5433 25.1832 18.8069C25.1269 19.0777 24.9853 19.5531 24.8779 19.8611C24.7229 20.2912 24.5916 20.574 24.3355 21.0153C24.1097 21.4086 23.8746 21.7587 23.6271 22.0512C23.425 22.2972 23.1008 22.6457 22.9067 22.8255C22.7126 23.0054 22.424 23.2447 22.2748 23.3586C22.1214 23.4703 21.8419 23.6313 21.6521 23.7113C21.4165 23.8185 21.2544 23.8555 21.144 23.8235C21.0352 23.7988 20.9389 23.7296 20.8678 23.6223C20.8039 23.5316 20.7505 23.3698 20.7518 23.2555C20.7557 23.1362 20.7992 22.961 20.8594 22.8455C20.9456 22.6797 21.0489 22.593 21.4401 22.3496C21.7072 22.1822 22.0552 21.91 22.2504 21.7179C22.4362 21.5336 22.7265 21.1995 22.8988 20.97C23.0727 20.7476 23.2995 20.3932 23.4093 20.1822C23.5165 19.9762 23.6767 19.5871 23.7616 19.3121C23.848 19.0443 23.9489 18.637 23.9884 18.4086C24.0253 18.1852 24.0607 17.9036 24.063 17.7771C24.0669 17.6578 24.058 17.4106 24.0438 17.2244C24.0269 17.0433 24.043 16.809 24.0787 16.6999C24.1247 16.5706 24.1974 16.4616 24.3221 16.3541C24.4254 16.2674 24.585 16.1845 24.6777 16.1689C24.7746 16.1555 24.9163 16.1781 24.9954 16.2193ZM12.2548 23.1942C12.8652 23.5055 13.0322 23.6116 13.0899 23.7246C13.1314 23.7973 13.1624 23.9411 13.1596 24.0482C13.1552 24.148 13.1101 24.3161 13.0552 24.4216C13.0029 24.5221 12.8818 24.6633 12.7889 24.7299C12.696 24.7965 12.5371 24.8479 12.437 24.8469C12.2974 24.8508 12.0856 24.7597 11.586 24.4998C11.0863 24.2398 10.8902 24.1185 10.8133 24.0019C10.7551 23.9206 10.7059 23.7609 10.7072 23.6466C10.7085 23.5324 10.7547 23.3521 10.8069 23.2516C10.8618 23.1461 10.9668 23.0156 11.0435 22.9597C11.116 22.9017 11.2474 22.8424 11.336 22.8247C11.471 22.7991 11.6053 22.8563 12.2548 23.1942Z" fill="white" stroke="white" stroke-width="0.4"/>
</g>
<defs>
<clipPath id="clip0_271_1120">
<rect width="32" height="32" fill="white"/>
</clipPath>
</defs>
</svg>
